<svg width="254" height="53" viewBox="0 0 254 53" fill="none" xmlns="http://www.w3.org/2000/svg">
<path d="M8.778 30.548C8.722 30.492 8.666 30.394 8.61 30.254C8.582 30.086 8.54 29.918 8.484 29.75L8.106 28.616L7.938 28.448C7.938 28.336 7.91 28.168 7.854 27.944C7.798 27.692 7.728 27.44 7.644 27.188C7.588 26.936 7.518 26.712 7.434 26.516C7.378 26.32 7.336 26.194 7.308 26.138C7.28 26.11 7.224 25.942 7.14 25.634C7.056 25.326 6.972 24.99 6.888 24.626C6.804 24.234 6.72 23.884 6.636 23.576C6.58 23.24 6.538 23.044 6.51 22.988L6.384 24.416C6.328 24.472 6.3 24.528 6.3 24.584C6.3 24.612 6.272 24.668 6.216 24.752L6.258 25.592L6.006 26.264L5.838 26.474C5.838 26.558 5.824 26.684 5.796 26.852C5.768 26.992 5.754 27.118 5.754 27.23V27.314V27.482C5.754 27.594 5.74 27.72 5.712 27.86C5.684 28 5.67 28.14 5.67 28.28L5.46 28.574L5.376 29.288C5.348 29.428 5.32 29.54 5.292 29.624C5.292 29.708 5.292 29.778 5.292 29.834L5.124 30.8L4.872 30.842L4.704 31.052L4.746 31.178L4.662 31.346L5.04 31.136L5.124 31.262V31.766L5.292 31.934L5.082 32.564L5.166 32.858L4.998 33.068L4.704 33.11L4.578 33.572L4.2 33.992L4.368 34.202H3.78L3.654 33.656L3.528 33.488L3.192 33.698C3.192 33.726 3.178 33.754 3.15 33.782C3.15 33.782 3.15 33.796 3.15 33.824C3.15 33.88 3.15 33.95 3.15 34.034C3.178 34.118 3.206 34.174 3.234 34.202H3.024L2.31 33.908L1.554 33.74C1.47 33.656 1.414 33.474 1.386 33.194C1.358 32.886 1.316 32.704 1.26 32.648L1.344 32.354C1.372 32.27 1.4 32.2 1.428 32.144C1.456 32.06 1.47 31.99 1.47 31.934V31.64C1.47 31.556 1.484 31.5 1.512 31.472L1.68 31.136V30.968L1.89 30.632V30.254C1.89 30.17 1.904 30.016 1.932 29.792C1.988 29.54 2.03 29.372 2.058 29.288L2.226 28.742V28.7C2.226 28.588 2.24 28.448 2.268 28.28C2.324 28.112 2.366 27.986 2.394 27.902L2.31 27.398C2.31 27.314 2.366 27.216 2.478 27.104L2.646 26.936L2.52 26.726V26.558C2.548 26.53 2.59 26.474 2.646 26.39C2.73 26.278 2.814 26.166 2.898 26.054C2.982 25.914 3.052 25.802 3.108 25.718C3.164 25.606 3.192 25.522 3.192 25.466L3.234 25.298L2.982 25.34C3.094 24.668 3.234 24.038 3.402 23.45C3.57 22.862 3.654 22.162 3.654 21.35L4.032 20.51L4.158 20.048C4.158 19.936 4.186 19.754 4.242 19.502C4.326 19.25 4.424 18.984 4.536 18.704C4.648 18.424 4.76 18.158 4.872 17.906C4.984 17.654 5.082 17.472 5.166 17.36L6.216 17.234C6.496 17.29 6.86 17.654 7.308 18.326C7.756 18.97 8.162 19.838 8.526 20.93L8.652 20.888C8.652 21.476 8.792 22.022 9.072 22.526L9.324 22.904L9.45 23.66L9.576 23.954C9.604 24.15 9.66 24.248 9.744 24.248C9.884 24.724 9.996 25.158 10.08 25.55C10.164 25.914 10.318 26.334 10.542 26.81L10.584 26.684C10.724 26.432 10.906 26.222 11.13 26.054C11.382 25.858 11.508 25.62 11.508 25.34L11.802 24.584L11.928 24.458C11.984 24.43 12.012 24.402 12.012 24.374C12.04 24.346 12.068 24.318 12.096 24.29L12.474 23.534C12.782 22.946 13.034 22.456 13.23 22.064C13.426 21.672 13.594 21.322 13.734 21.014C13.902 20.706 14.07 20.384 14.238 20.048C14.406 19.712 14.602 19.292 14.826 18.788C14.798 18.788 14.784 18.76 14.784 18.704C14.784 18.396 14.91 18.13 15.162 17.906C15.442 17.654 15.75 17.5 16.086 17.444C16.114 17.444 16.142 17.458 16.17 17.486C16.198 17.486 16.24 17.486 16.296 17.486C16.436 17.486 16.52 17.444 16.548 17.36C16.604 17.248 16.674 17.192 16.758 17.192L16.884 17.108C16.912 17.08 16.926 17.052 16.926 17.024C16.926 16.968 16.94 16.926 16.968 16.898L17.304 16.94L17.976 16.856C18.2 16.996 18.48 17.15 18.816 17.318C19.152 17.486 19.32 17.654 19.32 17.822L19.194 17.99L19.32 18.284L19.236 18.368L19.152 18.746C19.152 18.802 19.166 18.886 19.194 18.998C19.222 19.082 19.25 19.18 19.278 19.292L19.404 19.712C19.404 19.796 19.446 20.02 19.53 20.384C19.642 20.748 19.712 20.972 19.74 21.056L19.572 22.358V23.954L19.656 24.752L19.446 25.172C19.418 25.256 19.404 25.382 19.404 25.55L19.446 25.676L19.362 26.306H19.74V26.6L19.488 26.768L19.53 26.936L19.74 26.852L19.656 27.146C19.628 27.202 19.614 27.23 19.614 27.23C19.614 27.286 19.642 27.328 19.698 27.356C19.754 27.384 19.796 27.426 19.824 27.482L19.572 28.196C19.572 28.224 19.544 28.35 19.488 28.574L19.362 28.826L19.698 28.7L19.74 28.91L19.614 29.162L19.656 29.33H19.866C19.922 29.33 19.964 29.344 19.992 29.372L20.076 29.54L19.824 30.338C19.768 30.394 19.726 30.506 19.698 30.674C19.698 30.842 19.698 30.968 19.698 31.052L20.286 32.018C20.23 32.158 20.16 32.27 20.076 32.354L19.908 32.564L20.202 32.522L20.286 32.732L20.118 33.11C20.146 33.11 20.188 33.124 20.244 33.152C20.328 33.18 20.398 33.194 20.454 33.194V33.362L20.118 33.572L20.328 36.05C20.272 36.106 20.23 36.176 20.202 36.26L20.118 36.386C20.09 36.386 20.006 36.414 19.866 36.47C19.754 36.554 19.614 36.624 19.446 36.68C19.306 36.764 19.166 36.834 19.026 36.89C18.914 36.974 18.858 37.016 18.858 37.016V37.1L18.69 37.142L17.262 36.974C17.178 37.058 17.108 37.086 17.052 37.058C16.996 37.03 16.968 37.072 16.968 37.184L16.884 37.016L16.338 36.764L15.876 36.092L15.456 34.328L15.876 33.488C15.792 33.096 15.736 32.648 15.708 32.144C15.68 31.64 15.666 31.15 15.666 30.674V28.952V28.406L15.75 27.818L15.582 27.776C15.582 27.384 15.596 27.006 15.624 26.642C15.652 26.25 15.666 25.872 15.666 25.508C15.666 25.2 15.652 24.92 15.624 24.668C15.596 24.416 15.554 24.178 15.498 23.954L14.28 26.096C14.112 26.572 13.944 26.894 13.776 27.062C13.608 27.202 13.426 27.51 13.23 27.986C13.09 28.266 12.95 28.546 12.81 28.826C12.67 29.078 12.502 29.316 12.306 29.54L11.718 30.464C11.578 30.548 11.424 30.646 11.256 30.758C11.088 30.842 10.934 30.926 10.794 31.01C10.654 31.094 10.528 31.178 10.416 31.262C10.332 31.318 10.304 31.346 10.332 31.346C10.164 31.346 9.898 31.262 9.534 31.094C9.17 30.898 8.918 30.716 8.778 30.548ZM3.654 23.786C3.598 23.954 3.542 24.136 3.486 24.332C3.458 24.528 3.43 24.71 3.402 24.878L3.696 24.794L3.78 23.534L3.654 23.786ZM5.208 28.868L5.04 28.994C5.04 29.05 5.012 29.162 4.956 29.33C4.928 29.498 4.914 29.624 4.914 29.708V29.75C5.11 29.638 5.208 29.428 5.208 29.12V28.868ZM19.74 25.214C19.852 25.214 19.908 25.284 19.908 25.424C19.908 25.536 19.852 25.592 19.74 25.592C19.684 25.592 19.656 25.522 19.656 25.382C19.656 25.298 19.684 25.242 19.74 25.214ZM5.04 28.532L4.998 28.7L5.292 28.49L5.166 28.364L5.04 28.532ZM19.866 25.928V25.97C19.866 26.054 19.838 26.096 19.782 26.096C19.754 26.096 19.74 26.04 19.74 25.928C19.74 25.872 19.754 25.844 19.782 25.844C19.782 25.844 19.81 25.872 19.866 25.928ZM22.6633 30.506C22.6633 30.45 22.6773 30.408 22.7053 30.38C22.7333 30.324 22.7613 30.268 22.7893 30.212L22.9153 30.086C22.9153 29.694 23.0413 29.204 23.2933 28.616C23.5733 28.028 23.8813 27.622 24.2173 27.398L24.5533 27.23C24.6093 27.202 24.6373 27.146 24.6373 27.062C24.6373 26.95 24.6513 26.866 24.6793 26.81L24.8473 26.6C25.0713 26.292 25.3233 25.984 25.6033 25.676C25.8833 25.34 26.1493 25.046 26.4013 24.794C26.6813 24.542 26.9333 24.346 27.1573 24.206C27.3813 24.038 27.5773 23.954 27.7453 23.954C27.8013 23.954 27.8433 23.968 27.8713 23.996C27.9273 24.024 28.0533 24.066 28.2493 24.122L28.7113 24.71C28.8233 24.738 28.9213 24.85 29.0053 25.046L29.1313 25.34V26.012L29.2573 26.18C29.3133 26.236 29.3553 26.292 29.3833 26.348C29.4113 26.376 29.4533 26.404 29.5093 26.432L30.0133 26.768C30.0413 26.88 30.1253 27.02 30.2653 27.188C30.4053 27.356 30.5453 27.524 30.6853 27.692L31.2733 28.364C31.3293 28.448 31.3853 28.602 31.4413 28.826C31.4973 29.05 31.5393 29.288 31.5673 29.54C31.6233 29.792 31.6653 30.03 31.6933 30.254C31.7213 30.45 31.7353 30.59 31.7353 30.674V31.01L31.3573 31.892L31.3153 32.228L30.8953 32.69L30.2653 33.194C30.1253 33.278 29.9433 33.32 29.7193 33.32C29.4953 33.32 29.2993 33.39 29.1313 33.53L28.7953 33.656C28.6273 33.768 28.4873 33.824 28.3753 33.824C28.3473 33.824 28.3193 33.824 28.2913 33.824C28.2913 33.796 28.2773 33.782 28.2493 33.782L27.7453 33.866C27.6333 33.95 27.3953 33.992 27.0313 33.992C26.8353 33.992 26.6813 33.978 26.5693 33.95L25.6033 33.698L24.6373 33.362C24.2453 33.25 23.9373 33.152 23.7133 33.068C23.5173 32.984 23.2933 32.704 23.0413 32.228C22.9853 32.088 22.9293 31.948 22.8733 31.808C22.8173 31.668 22.7613 31.556 22.7053 31.472L22.5373 30.8L22.6633 30.506ZM26.1073 31.934L26.3173 31.976C26.5413 31.92 26.8073 31.878 27.1153 31.85C27.4233 31.794 27.6473 31.724 27.7873 31.64L28.2073 31.346L28.5433 30.968L28.6693 30.59L28.1653 28.658L27.4513 28.364L27.3253 28.448C27.2693 28.476 27.1853 28.588 27.0733 28.784C26.9613 28.952 26.8353 29.162 26.6953 29.414C26.5833 29.666 26.4573 29.932 26.3173 30.212C26.2053 30.492 26.1213 30.73 26.0653 30.926L26.1073 31.934ZM24.5533 28.238C24.4133 28.378 24.2453 28.63 24.0493 28.994C23.8533 29.358 23.7553 29.68 23.7553 29.96C23.7553 30.072 23.7693 30.156 23.7973 30.212L23.8813 30.002L24.5533 28.784C24.6653 28.616 24.7353 28.49 24.7633 28.406L24.5533 28.238ZM33.5324 30.506C33.5324 30.45 33.5464 30.408 33.5744 30.38C33.6024 30.324 33.6304 30.268 33.6584 30.212L33.7844 30.086C33.7844 29.694 33.9104 29.204 34.1624 28.616C34.4424 28.028 34.7504 27.622 35.0864 27.398L35.4224 27.23C35.4784 27.202 35.5064 27.146 35.5064 27.062C35.5064 26.95 35.5204 26.866 35.5484 26.81L35.7164 26.6C35.9404 26.292 36.1924 25.984 36.4724 25.676C36.7524 25.34 37.0184 25.046 37.2704 24.794C37.5504 24.542 37.8024 24.346 38.0264 24.206C38.2504 24.038 38.4464 23.954 38.6144 23.954C38.6704 23.954 38.7124 23.968 38.7404 23.996C38.7964 24.024 38.9224 24.066 39.1184 24.122L39.5804 24.71C39.6924 24.738 39.7904 24.85 39.8744 25.046L40.0004 25.34V26.012L40.1264 26.18C40.1824 26.236 40.2244 26.292 40.2524 26.348C40.2804 26.376 40.3224 26.404 40.3784 26.432L40.8824 26.768C40.9104 26.88 40.9944 27.02 41.1344 27.188C41.2744 27.356 41.4144 27.524 41.5544 27.692L42.1424 28.364C42.1984 28.448 42.2544 28.602 42.3104 28.826C42.3664 29.05 42.4084 29.288 42.4364 29.54C42.4924 29.792 42.5344 30.03 42.5624 30.254C42.5904 30.45 42.6044 30.59 42.6044 30.674V31.01L42.2264 31.892L42.1844 32.228L41.7644 32.69L41.1344 33.194C40.9944 33.278 40.8124 33.32 40.5884 33.32C40.3644 33.32 40.1684 33.39 40.0004 33.53L39.6644 33.656C39.4964 33.768 39.3564 33.824 39.2444 33.824C39.2164 33.824 39.1884 33.824 39.1604 33.824C39.1604 33.796 39.1464 33.782 39.1184 33.782L38.6144 33.866C38.5024 33.95 38.2644 33.992 37.9004 33.992C37.7044 33.992 37.5504 33.978 37.4384 33.95L36.4724 33.698L35.5064 33.362C35.1144 33.25 34.8064 33.152 34.5824 33.068C34.3864 32.984 34.1624 32.704 33.9104 32.228C33.8544 32.088 33.7984 31.948 33.7424 31.808C33.6864 31.668 33.6304 31.556 33.5744 31.472L33.4064 30.8L33.5324 30.506ZM36.9764 31.934L37.1864 31.976C37.4104 31.92 37.6764 31.878 37.9844 31.85C38.2924 31.794 38.5164 31.724 38.6564 31.64L39.0764 31.346L39.4124 30.968L39.5384 30.59L39.0344 28.658L38.3204 28.364L38.1944 28.448C38.1384 28.476 38.0544 28.588 37.9424 28.784C37.8304 28.952 37.7044 29.162 37.5644 29.414C37.4524 29.666 37.3264 29.932 37.1864 30.212C37.0744 30.492 36.9904 30.73 36.9344 30.926L36.9764 31.934ZM35.4224 28.238C35.2824 28.378 35.1144 28.63 34.9184 28.994C34.7224 29.358 34.6244 29.68 34.6244 29.96C34.6244 30.072 34.6384 30.156 34.6664 30.212L34.7504 30.002L35.4224 28.784C35.5344 28.616 35.6044 28.49 35.6324 28.406L35.4224 28.238ZM44.9895 30.044L45.4515 28.91C45.4515 28.854 45.4375 28.812 45.4095 28.784C45.4095 28.756 45.4095 28.714 45.4095 28.658C45.4095 28.406 45.4655 28.126 45.5775 27.818C45.6895 27.482 45.8295 27.132 45.9975 26.768C46.1655 26.404 46.3475 26.054 46.5435 25.718C46.7675 25.354 46.9775 25.004 47.1735 24.668C47.1455 24.64 47.1315 24.612 47.1315 24.584C47.1315 24.472 47.1735 24.374 47.2575 24.29C47.3695 24.178 47.4675 24.122 47.5515 24.122C47.8035 24.122 48.0835 24.178 48.3915 24.29C48.6995 24.402 48.9795 24.556 49.2315 24.752C49.5115 24.92 49.7495 25.13 49.9455 25.382C50.1415 25.606 50.2395 25.858 50.2395 26.138L50.1555 26.474L53.4315 25.046H54.1875C54.1875 24.99 54.2155 24.962 54.2715 24.962C54.3555 24.934 54.4115 24.92 54.4395 24.92C54.6075 24.92 54.7195 24.948 54.7755 25.004C54.8595 25.06 54.9715 25.158 55.1115 25.298L55.6155 25.382C55.7275 25.438 55.8955 25.522 56.1195 25.634C56.3715 25.746 56.4975 25.844 56.4975 25.928V26.642H56.3295L56.2875 26.768C56.2875 26.796 56.3015 26.81 56.3295 26.81H56.4135C56.4415 26.838 56.4695 26.852 56.4975 26.852V26.978L56.4135 27.104C56.4135 27.328 56.4415 27.454 56.4975 27.482C56.4975 27.762 56.4555 28.112 56.3715 28.532C56.2875 28.952 56.1335 29.232 55.9095 29.372H56.2035C56.1475 29.428 56.1195 29.498 56.1195 29.582C56.1195 29.666 56.1335 29.722 56.1615 29.75C56.1895 29.75 56.2035 29.764 56.2035 29.792C56.2035 30.016 56.1615 30.24 56.0775 30.464C56.0215 30.688 55.9935 30.856 55.9935 30.968L55.8255 31.598C55.7695 31.822 55.6995 32.004 55.6155 32.144C55.5595 32.284 55.5315 32.508 55.5315 32.816L55.6155 33.026C55.6155 33.11 55.5735 33.222 55.4895 33.362C55.4055 33.502 55.3635 33.642 55.3635 33.782C55.3635 34.062 55.3915 34.23 55.4475 34.286V34.37L55.2375 34.454L55.1115 34.706C54.9435 34.762 54.8315 34.818 54.7755 34.874C54.7475 34.902 54.7195 34.93 54.6915 34.958C54.6635 34.958 54.6075 34.972 54.5235 35C54.4395 35 54.2575 35 53.9775 35C53.6975 35 53.4735 34.888 53.3055 34.664C53.1655 34.44 53.0535 34.188 52.9695 33.908C52.8855 33.6 52.8295 33.292 52.8015 32.984C52.8015 32.648 52.8015 32.396 52.8015 32.228C52.8015 31.808 52.8015 31.458 52.8015 31.178C52.8015 30.87 52.8015 30.59 52.8015 30.338C52.8295 30.058 52.8575 29.778 52.8855 29.498C52.9135 29.19 52.9555 28.826 53.0115 28.406C53.0115 28.294 52.9835 28.112 52.9275 27.86C52.8995 27.58 52.8855 27.412 52.8855 27.356L52.4235 27.524C51.7795 27.804 51.1355 28.154 50.4915 28.574C49.8475 28.994 49.4695 29.498 49.3575 30.086L49.2735 30.464L49.3995 30.548C49.3435 30.688 49.3015 30.8 49.2735 30.884C49.2735 30.94 49.2735 31.094 49.2735 31.346L49.6095 31.094V31.136C49.6095 31.528 49.4835 31.822 49.2315 32.018C49.0075 32.186 48.8955 32.396 48.8955 32.648L49.1895 33.782L49.1055 34.916H48.6855C48.6295 34.944 48.5455 34.986 48.4335 35.042C48.3495 35.126 48.2655 35.168 48.1815 35.168L46.1655 34.958L44.7795 34.286L45.1575 33.782C45.1015 33.838 45.0595 33.866 45.0315 33.866H44.9895C44.9055 33.866 44.8495 33.852 44.8215 33.824C44.8215 33.684 44.8495 33.586 44.9055 33.53L44.9895 33.698L45.7035 32.9C45.7035 32.788 45.6615 32.704 45.5775 32.648C45.4935 32.732 45.4375 32.788 45.4095 32.816C45.3815 32.816 45.2275 32.816 44.9475 32.816C44.9475 32.536 44.9895 32.312 45.0735 32.144C45.1855 31.948 45.2415 31.78 45.2415 31.64H45.1575C45.1015 31.64 45.0315 31.584 44.9475 31.472C44.8915 31.472 44.8355 31.486 44.7795 31.514C44.7515 31.542 44.7235 31.556 44.6955 31.556C44.7235 31.472 44.7935 31.332 44.9055 31.136C45.0455 30.912 45.1155 30.758 45.1155 30.674L44.9895 30.044ZM45.5775 32.396C45.7175 32.396 45.7735 32.34 45.7455 32.228C45.7455 32.088 45.8015 31.85 45.9135 31.514C45.8295 31.514 45.7455 31.612 45.6615 31.808C45.5775 31.976 45.5355 32.13 45.5355 32.27C45.5355 32.326 45.5495 32.368 45.5775 32.396ZM45.1155 31.178H44.9895V31.22C44.9895 31.248 45.0455 31.304 45.1575 31.388L45.1155 31.178ZM45.2415 32.228V31.976C45.2135 31.976 45.1995 31.99 45.1995 32.018C45.1995 32.046 45.1855 32.074 45.1575 32.102C45.1575 32.102 45.1575 32.116 45.1575 32.144L45.2415 32.228ZM45.4515 30.968V30.716L45.3675 30.884L45.4515 30.968ZM81.3202 41.93C81.2922 41.874 81.2362 41.79 81.1522 41.678C81.0682 41.594 81.0262 41.496 81.0262 41.384C81.0262 41.3 81.0542 41.244 81.1102 41.216L81.4042 41.594L81.5302 41.468C81.5022 41.44 81.4882 41.384 81.4882 41.3C81.4882 41.216 81.5022 41.118 81.5302 41.006C81.5862 40.894 81.6282 40.81 81.6562 40.754L81.3622 40.712C81.3342 40.712 81.3202 40.642 81.3202 40.502C81.3202 40.39 81.2502 40.236 81.1102 40.04L81.3202 40.124C81.3762 40.068 81.4042 39.984 81.4042 39.872C81.4042 39.704 81.3342 39.55 81.1942 39.41C81.1102 39.494 81.0682 39.578 81.0682 39.662C81.0682 39.774 81.0822 39.858 81.1102 39.914H81.0262C80.9982 39.914 80.9282 39.886 80.8162 39.83C80.8162 39.886 80.8162 39.97 80.8162 40.082C80.8162 40.194 80.8022 40.278 80.7742 40.334H80.6482C80.5922 40.278 80.5642 40.18 80.5642 40.04C80.5642 39.9 80.5362 39.774 80.4802 39.662L80.5222 39.704C80.5782 39.704 80.5922 39.606 80.5642 39.41C80.5642 39.242 80.6762 39.074 80.9002 38.906C80.9002 39.046 80.9002 39.144 80.9002 39.2C80.9282 39.284 80.9422 39.354 80.9422 39.41C80.9702 39.354 80.9842 39.27 80.9842 39.158C80.9842 38.962 80.9282 38.794 80.8162 38.654C80.7322 38.542 80.6902 38.402 80.6902 38.234C80.6902 38.206 80.6902 38.178 80.6902 38.15C80.7182 38.122 80.7322 38.094 80.7322 38.066L80.4802 37.94C80.4242 37.856 80.3822 37.688 80.3542 37.436C80.3542 37.184 80.3402 37.002 80.3122 36.89C80.3122 36.974 80.2702 37.03 80.1862 37.058C80.1302 37.114 80.1162 37.142 80.1442 37.142C80.0322 37.086 79.9622 37.058 79.9342 37.058C79.8782 37.058 79.8502 37.086 79.8502 37.142C79.7942 37.03 79.7522 36.862 79.7242 36.638C79.6962 36.442 79.5842 36.232 79.3882 36.008C79.2762 36.12 79.1922 36.176 79.1362 36.176C79.1082 36.204 79.0942 36.246 79.0942 36.302C79.0942 36.33 79.0942 36.358 79.0942 36.386C79.1222 36.414 79.1362 36.456 79.1362 36.512C79.1082 36.512 79.0802 36.512 79.0522 36.512C79.0522 36.54 79.0382 36.554 79.0102 36.554C78.8982 36.554 78.8422 36.498 78.8422 36.386L78.9682 35.294H79.1362C79.1082 35.266 79.0662 35.168 79.0102 35C78.8702 35.112 78.8002 35.182 78.8002 35.21C78.8282 35.238 78.8422 35.266 78.8422 35.294L78.5902 35.42C78.5342 35.364 78.4362 35.196 78.2962 34.916C78.1562 34.608 78.0722 34.412 78.0442 34.328L77.9602 33.866C77.9042 33.698 77.8062 33.502 77.6662 33.278C77.5542 33.026 77.4842 32.802 77.4562 32.606V32.438L77.3302 32.396C77.3022 32.256 77.2742 32.13 77.2462 32.018C77.2182 31.878 77.1902 31.752 77.1622 31.64L77.0362 31.346L76.7422 31.178L75.4822 27.86C75.3982 27.748 75.3562 27.636 75.3562 27.524C75.3562 27.468 75.3562 27.44 75.3562 27.44C75.3842 27.412 75.3982 27.37 75.3982 27.314C75.3982 27.258 75.3562 27.146 75.2722 26.978L74.6842 27.02C74.6282 27.048 74.5582 27.062 74.4742 27.062C74.5022 27.034 74.5162 27.02 74.5162 27.02H74.4742C74.4462 27.02 74.4182 27.02 74.3902 27.02C74.3622 26.992 74.3342 26.978 74.3062 26.978H73.6762C73.3962 26.922 73.1722 26.852 73.0042 26.768C72.8642 26.684 72.7242 26.614 72.5842 26.558C72.4442 27.258 72.3742 27.636 72.3742 27.692L72.4582 28.07L72.3742 28.196C72.3742 28.252 72.3602 28.294 72.3322 28.322C72.3042 28.35 72.2902 28.378 72.2902 28.406L72.3742 28.532H72.4582L72.2902 28.868V29.162C72.2902 29.526 72.2762 29.806 72.2482 30.002C72.2202 30.17 72.1782 30.296 72.1222 30.38C72.0942 30.464 72.0662 30.534 72.0382 30.59C72.0102 30.646 71.9962 30.73 71.9962 30.842L72.0802 30.884C72.0522 30.94 72.0382 30.982 72.0382 31.01C72.0382 31.038 72.0242 31.052 71.9962 31.052C71.9402 31.052 71.9122 31.038 71.9122 31.01C71.8842 30.982 71.8702 30.954 71.8702 30.926C71.8422 30.926 71.8282 31.024 71.8282 31.22L71.9122 31.304L71.7862 31.598V32.942V33.11C71.7862 33.166 71.7722 33.306 71.7442 33.53C71.7442 33.726 71.7442 33.852 71.7442 33.908L71.6602 33.992L71.7442 34.202V34.79L71.8282 34.916V35.21L71.7862 35.378L71.5762 35.63L70.6102 35.966L69.4762 36.134L68.5102 36.008C68.1182 35.896 67.8382 35.7 67.6702 35.42C67.5022 35.14 67.4182 34.846 67.4182 34.538C67.4182 34.454 67.4182 34.3 67.4182 34.076C67.4182 33.852 67.4322 33.628 67.4602 33.404C67.4882 33.152 67.5162 32.928 67.5442 32.732C67.5722 32.508 67.6142 32.368 67.6702 32.312L67.7542 34.202L67.9642 34.454C67.9642 34.034 67.9782 33.446 68.0062 32.69C68.0622 31.934 68.1882 31.024 68.3842 29.96L68.3422 30.044C68.2582 30.044 68.2162 29.862 68.2162 29.498C68.2162 29.134 68.2582 28.952 68.3422 28.952C68.3982 29.12 68.4262 29.274 68.4262 29.414L68.9722 27.44H68.8042C68.8042 27.244 68.8462 27.132 68.9302 27.104C69.0142 27.048 69.0562 26.992 69.0562 26.936H68.9722V26.642C69.1962 25.046 69.5322 23.478 69.9802 21.938C70.4282 20.398 70.8902 18.956 71.3662 17.612C71.4502 17.416 71.5342 17.164 71.6182 16.856C71.7302 16.52 71.8142 16.324 71.8702 16.268L72.1222 16.1H72.6262C72.8502 16.1 73.0882 16.128 73.3402 16.184C73.5922 16.212 73.8302 16.226 74.0542 16.226H74.1802C74.3762 16.366 74.5022 16.534 74.5582 16.73C74.6422 16.926 74.7262 17.136 74.8102 17.36C74.8102 17.36 74.7962 17.43 74.7682 17.57C74.7682 17.682 74.7542 17.808 74.7262 17.948C74.7262 18.088 74.7122 18.228 74.6842 18.368C74.6842 18.48 74.6702 18.55 74.6422 18.578L76.1122 17.654C76.1682 17.598 76.3642 17.528 76.7002 17.444C77.0362 17.332 77.4142 17.234 77.8342 17.15C78.2542 17.066 78.6602 16.996 79.0522 16.94C79.4442 16.884 79.7242 16.856 79.8922 16.856L80.1022 17.066H80.2702L80.1862 16.94H80.3962C80.4242 16.94 80.5222 16.982 80.6902 17.066C80.8582 17.15 80.9562 17.192 80.9842 17.192C81.2642 17.276 81.5582 17.332 81.8662 17.36C82.1742 17.388 82.4542 17.472 82.7062 17.612C82.9582 17.724 83.1542 17.92 83.2942 18.2C83.4622 18.452 83.5462 18.858 83.5462 19.418L83.7982 19.25L83.8822 19.418L83.7142 19.67L83.7982 19.88L83.5882 20.258C83.5882 20.342 83.5462 20.468 83.4622 20.636C83.4062 20.776 83.3782 20.874 83.3782 20.93L83.4622 21.098C83.4622 21.154 83.3922 21.35 83.2522 21.686L83.0842 22.19L83.1682 22.274V22.526C83.1682 22.61 83.1682 22.708 83.1682 22.82C83.1962 22.904 83.2102 22.988 83.2102 23.072C83.2102 23.268 83.1402 23.394 83.0002 23.45V23.576C83.0002 23.856 82.8742 24.178 82.6222 24.542C82.3982 24.878 82.2582 25.144 82.2022 25.34V25.55L81.9922 25.76C81.9362 25.816 81.8102 25.872 81.6142 25.928C81.4462 25.984 81.3202 26.04 81.2362 26.096L80.8162 26.264C80.7882 26.264 80.7042 26.292 80.5642 26.348C80.4242 26.376 80.2702 26.418 80.1022 26.474C79.9342 26.53 79.7662 26.586 79.5982 26.642C79.4582 26.67 79.3742 26.684 79.3462 26.684C79.4022 26.992 79.5422 27.244 79.7662 27.44C80.0182 27.636 80.1442 27.846 80.1442 28.07C80.1442 28.294 80.2142 28.56 80.3542 28.868C80.4942 29.176 80.6342 29.484 80.7742 29.792C80.9422 30.1 81.0962 30.366 81.2362 30.59C81.3762 30.814 81.4462 30.954 81.4462 31.01V31.178L81.3622 31.22L81.1102 31.094L82.0342 32.9L82.2862 33.698L82.6222 33.908L82.7062 34.076L82.5802 34.244C82.6362 34.328 82.7342 34.482 82.8742 34.706C83.0422 34.902 83.1402 35.028 83.1682 35.084L83.2942 35.21L83.4202 35.672C83.4482 35.756 83.4622 35.854 83.4622 35.966L83.5042 36.386L83.7142 37.016C83.7702 37.24 83.8262 37.394 83.8822 37.478L84.1762 38.402L83.9242 38.57L83.7982 38.78L84.0082 39.074L84.1342 38.99L84.3862 39.116L84.5542 39.494L84.6802 39.368L85.1422 40.67V40.754C85.1422 40.838 85.1562 40.922 85.1842 41.006C85.2402 41.118 85.2682 41.244 85.2682 41.384C85.2682 41.44 85.2262 41.496 85.1422 41.552C85.0582 41.608 85.0162 41.734 85.0162 41.93C84.8202 41.846 84.6942 41.776 84.6382 41.72C84.5822 41.664 84.5402 41.636 84.5122 41.636C84.3722 41.636 84.2322 41.692 84.0922 41.804C83.9522 41.916 83.8822 42.014 83.8822 42.098C83.8822 42.238 83.8962 42.322 83.9242 42.35L83.6302 42.308L83.5882 42.056C83.5322 42.056 83.4902 42.056 83.4622 42.056C83.4622 42.084 83.4482 42.098 83.4202 42.098C83.3922 42.098 83.3642 42.084 83.3362 42.056C83.3362 42.056 83.3222 42.056 83.2942 42.056V42.266C83.2942 42.294 83.3082 42.308 83.3362 42.308H83.2942L83.1262 42.014C83.0982 42.098 83.0002 42.168 82.8322 42.224C82.6922 42.308 82.5522 42.35 82.4122 42.35L82.3282 42.182C82.2162 42.182 82.1182 42.266 82.0342 42.434C81.7822 42.322 81.5442 42.154 81.3202 41.93ZM73.4242 23.786C73.3682 23.842 73.2982 24.01 73.2142 24.29C73.1302 24.542 73.0322 24.85 72.9202 25.214C73.3962 25.018 73.8582 24.948 74.3062 25.004C74.7822 25.032 75.2162 24.99 75.6082 24.878C75.7762 24.85 76.0422 24.78 76.4062 24.668C76.7702 24.528 77.0502 24.43 77.2462 24.374C77.4422 24.262 77.6522 24.192 77.8762 24.164C78.1282 24.136 78.3522 24.094 78.5482 24.038C78.7722 23.954 78.9542 23.814 79.0942 23.618C79.2622 23.422 79.3462 23.114 79.3462 22.694C79.4022 22.274 79.4582 21.952 79.5142 21.728C79.5702 21.476 79.6262 21.252 79.6822 21.056C79.7382 20.832 79.7802 20.594 79.8082 20.342C79.8642 20.09 79.8922 19.754 79.8922 19.334C79.6682 19.334 79.4582 19.376 79.2622 19.46C79.0942 19.544 78.8842 19.586 78.6322 19.586C78.4922 19.586 78.3522 19.6 78.2122 19.628C78.1002 19.628 77.9742 19.6 77.8342 19.544L77.7922 19.502L77.5402 19.586C77.4002 19.698 77.1902 19.796 76.9102 19.88C76.6582 19.964 76.3922 20.048 76.1122 20.132C75.8602 20.188 75.6362 20.258 75.4402 20.342C75.2442 20.426 75.1462 20.51 75.1462 20.594L74.6422 20.678L74.3482 20.636H74.0542C74.0542 20.692 74.0262 20.776 73.9702 20.888C73.9422 20.972 73.9282 21.042 73.9282 21.098L74.0122 21.35C74.0122 21.294 74.0402 21.252 74.0962 21.224C74.1802 21.196 74.2362 21.182 74.2642 21.182C74.2642 21.574 74.1522 22.008 73.9282 22.484C73.7322 22.932 73.5642 23.366 73.4242 23.786ZM81.9502 39.116C82.0062 39.256 82.0762 39.326 82.1602 39.326C82.1882 39.326 82.2022 39.27 82.2022 39.158C82.2022 38.99 82.1882 38.78 82.1602 38.528C82.1322 38.276 82.0762 38.024 81.9922 37.772C81.9082 37.52 81.7962 37.296 81.6562 37.1C81.5162 36.932 81.3202 36.848 81.0682 36.848V37.058C81.2082 37.198 81.2922 37.254 81.3202 37.226C81.3762 37.226 81.5162 37.268 81.7402 37.352L81.5302 37.688V37.73C81.5302 37.786 81.5862 37.856 81.6982 37.94C81.8102 38.024 81.8662 38.164 81.8662 38.36C81.8662 38.5 81.8242 38.654 81.7402 38.822C81.7402 38.822 81.8242 38.85 81.9922 38.906L81.9502 39.116ZM79.1782 36.764C79.3182 36.876 79.4022 37.016 79.4302 37.184C79.4582 37.352 79.4722 37.408 79.4722 37.352C79.4722 37.52 79.4582 37.632 79.4302 37.688C79.3182 37.464 79.2202 37.282 79.1362 37.142C79.0802 37.03 79.0522 36.946 79.0522 36.89C79.0522 36.806 79.0942 36.764 79.1782 36.764ZM67.6702 31.976H67.5022C67.5022 31.948 67.5022 31.878 67.5022 31.766C67.5302 31.654 67.5442 31.528 67.5442 31.388C67.5722 31.22 67.5862 31.08 67.5862 30.968C67.6142 30.828 67.6422 30.73 67.6702 30.674V31.976ZM81.5302 40.25C81.6142 40.334 81.6842 40.376 81.7402 40.376L81.6982 40.166L81.5302 40.25ZM80.0602 37.31C80.2002 37.31 80.2702 37.338 80.2702 37.394L80.1862 37.478L80.0602 37.31ZM81.9922 39.62C81.9642 39.62 81.9222 39.55 81.8662 39.41L81.8242 39.662L81.9922 39.62ZM92.1506 33.656C92.6546 33.796 92.9066 33.894 92.9066 33.95L92.8646 34.328C92.8646 34.636 92.9206 34.902 93.0326 35.126C93.0886 35.238 93.1446 35.308 93.2006 35.336C93.2006 35.392 93.0746 35.42 92.8226 35.42C92.5986 35.448 92.3186 35.476 91.9826 35.504C91.6746 35.532 91.3526 35.546 91.0166 35.546C90.7086 35.574 90.4566 35.588 90.2606 35.588H89.9666C89.3506 35.588 88.8326 35.49 88.4126 35.294C87.9926 35.098 87.6566 34.762 87.4046 34.286L87.2366 34.202L87.1526 33.656C87.0966 33.432 87.0406 33.222 86.9846 33.026C86.9286 32.83 86.9006 32.62 86.9006 32.396C86.9286 32.228 86.9986 32.088 87.1106 31.976C87.2226 31.836 87.3206 31.724 87.4046 31.64C87.5166 31.528 87.6006 31.444 87.6566 31.388C87.7126 31.332 87.6986 31.304 87.6146 31.304C87.6146 31.164 87.6986 30.982 87.8666 30.758C88.0346 30.534 88.2446 30.31 88.4966 30.086C88.7486 29.862 89.0006 29.652 89.2526 29.456C89.5326 29.232 89.7566 29.064 89.9246 28.952L90.2606 29.036C90.3166 29.036 90.4566 29.008 90.6806 28.952C90.9326 28.868 91.1286 28.798 91.2686 28.742L91.8566 28.322C92.0526 28.294 92.1506 28.196 92.1506 28.028L93.7886 27.272C93.8166 27.216 93.8586 27.16 93.9146 27.104C93.9986 27.02 94.0406 26.964 94.0406 26.936L93.7046 25.592C93.7046 25.536 93.6626 25.508 93.5786 25.508C93.5506 25.508 93.5366 25.522 93.5366 25.55C93.5366 25.55 93.5226 25.55 93.4946 25.55H93.4106C93.2706 25.55 93.0186 25.578 92.6546 25.634C92.3186 25.69 91.9686 25.76 91.6046 25.844C91.2406 25.928 90.9046 25.998 90.5966 26.054C90.3166 26.11 90.1766 26.138 90.1766 26.138C90.1486 26.166 90.1066 26.18 90.0506 26.18C89.8826 26.18 89.7006 26.096 89.5046 25.928C89.3366 25.76 89.1826 25.606 89.0426 25.466L88.6226 25.298L88.4126 25.13C88.4126 25.074 88.3986 25.032 88.3706 25.004C88.3426 24.948 88.3146 24.892 88.2866 24.836L88.2026 24.668C88.2026 24.528 88.4266 24.402 88.8746 24.29C89.3506 24.178 89.9386 24.08 90.6386 23.996C91.3386 23.912 92.0806 23.856 92.8646 23.828C93.6766 23.772 94.4186 23.744 95.0906 23.744H95.2166C95.6086 23.744 95.9306 23.814 96.1826 23.954C96.4346 24.066 96.6446 24.22 96.8126 24.416C96.9806 24.584 97.1206 24.78 97.2326 25.004C97.3446 25.2 97.4706 25.382 97.6106 25.55V26.264C97.6106 26.572 97.6106 26.824 97.6106 27.02C97.6386 27.188 97.6526 27.356 97.6526 27.524C97.6526 27.692 97.6386 27.874 97.6106 28.07C97.5826 28.238 97.5266 28.476 97.4426 28.784C97.4426 28.924 97.4706 29.05 97.5266 29.162C97.5826 29.246 97.6106 29.344 97.6106 29.456V29.498L97.6526 29.792L97.3166 30.17L97.5686 30.464L97.2746 30.842C97.2746 30.898 97.2466 30.968 97.1906 31.052C97.1626 31.136 97.1486 31.206 97.1486 31.262L97.1906 31.304L97.1066 31.976L97.4426 32.06L97.4006 32.312L97.1486 32.438L97.2326 32.606L97.1906 32.9C97.0506 33.152 96.9526 33.516 96.8966 33.992C96.8406 34.468 96.7986 34.818 96.7706 35.042C96.7426 35.098 96.6306 35.126 96.4346 35.126C96.2666 35.154 96.0706 35.168 95.8466 35.168C95.6506 35.196 95.4546 35.21 95.2586 35.21C95.0906 35.21 95.0066 35.21 95.0066 35.21C94.7546 35.21 94.5306 35.14 94.3346 35C94.1666 34.86 94.0266 34.692 93.9146 34.496C93.8306 34.272 93.7606 34.048 93.7046 33.824C93.6766 33.572 93.6626 33.348 93.6626 33.152C93.6626 32.676 93.7326 32.298 93.8726 32.018C94.0406 31.71 94.1246 31.29 94.1246 30.758C94.0686 30.534 94.0546 30.31 94.0826 30.086C94.1386 29.834 94.0406 29.708 93.7886 29.708C93.7326 29.764 93.6626 29.834 93.5786 29.918C93.5226 29.974 93.4666 30.016 93.4106 30.044C93.3826 30.016 93.3126 30.002 93.2006 30.002C93.1446 30.002 93.0186 30.044 92.8226 30.128C92.6266 30.212 92.4166 30.31 92.1926 30.422C91.9686 30.534 91.7586 30.646 91.5626 30.758C91.3946 30.87 91.2966 30.954 91.2686 31.01C90.9606 31.206 90.6526 31.374 90.3446 31.514C90.0646 31.654 89.8266 31.822 89.6306 32.018L89.5466 32.648C89.5466 32.676 89.5326 32.746 89.5046 32.858C89.4766 32.942 89.4626 33.026 89.4626 33.11L89.5046 33.152L89.6726 33.026L89.7986 33.236C89.9946 33.264 90.1906 33.278 90.3866 33.278C90.5826 33.25 90.7226 33.264 90.8066 33.32C90.8346 33.32 90.8486 33.32 90.8486 33.32C90.8766 33.292 90.9046 33.278 90.9326 33.278C91.0726 33.278 91.2406 33.348 91.4366 33.488C91.6606 33.628 91.8566 33.698 92.0246 33.698C92.0806 33.698 92.1226 33.684 92.1506 33.656ZM100.232 32.942C100.232 32.914 100.232 32.816 100.232 32.648C100.26 32.48 100.274 32.312 100.274 32.144C100.302 31.948 100.316 31.78 100.316 31.64C100.344 31.472 100.358 31.36 100.358 31.304L100.568 30.842C100.568 30.786 100.61 30.702 100.694 30.59C100.778 30.45 100.82 30.352 100.82 30.296L100.988 30.422V29.708L101.156 29.372C101.156 29.344 101.142 29.316 101.114 29.288C101.114 29.26 101.114 29.218 101.114 29.162C101.114 29.078 101.114 28.994 101.114 28.91C101.142 28.798 101.156 28.714 101.156 28.658C101.016 28.658 100.932 28.672 100.904 28.7L100.82 28.742L100.652 28.658C100.652 28.574 100.666 28.504 100.694 28.448L100.778 28.154C100.834 27.762 100.876 27.384 100.904 27.02C100.96 26.656 100.988 26.278 100.988 25.886L101.576 21.77C101.576 21.714 101.576 21.574 101.576 21.35C101.604 21.126 101.646 20.888 101.702 20.636L101.87 19.628L102.038 19.124C102.038 19.04 102.108 18.872 102.248 18.62C102.388 18.34 102.458 18.158 102.458 18.074V17.906V17.78C102.458 17.388 102.626 17.164 102.962 17.108C103.326 17.052 103.718 16.968 104.138 16.856L104.348 16.982C104.46 17.122 104.558 17.178 104.642 17.15C104.726 17.094 104.894 17.178 105.146 17.402L105.608 17.78L105.818 18.074V18.284C105.818 18.34 105.818 18.396 105.818 18.452C105.846 18.508 105.86 18.564 105.86 18.62L105.902 18.914C105.902 19.306 105.804 19.656 105.608 19.964C105.412 20.244 105.314 20.58 105.314 20.972V21.14L105.146 21.476C105.118 21.616 105.104 21.77 105.104 21.938C105.104 22.106 105.104 22.246 105.104 22.358L105.146 22.526C105.146 22.582 105.118 22.792 105.062 23.156C105.034 23.492 105.02 23.688 105.02 23.744L105.104 23.912C105.104 23.996 105.076 24.038 105.02 24.038L105.104 24.122V25.55C105.048 25.55 105.02 25.578 105.02 25.634V25.886L105.146 25.802C105.118 25.858 105.09 25.984 105.062 26.18C105.062 26.348 105.02 26.586 104.936 26.894C105.048 26.754 105.216 26.614 105.44 26.474C105.692 26.334 105.958 26.208 106.238 26.096C106.546 25.984 106.868 25.886 107.204 25.802C107.54 25.718 107.848 25.634 108.128 25.55C108.156 25.522 108.254 25.494 108.422 25.466C108.59 25.438 108.716 25.396 108.8 25.34L109.304 25.424H109.472C109.584 25.424 109.682 25.396 109.766 25.34L110.522 25.466L111.656 26.642L111.74 27.02L111.908 27.818L111.866 27.986H111.95C111.922 28.042 111.908 28.07 111.908 28.07C111.908 28.098 111.908 28.126 111.908 28.154C111.936 28.154 111.95 28.182 111.95 28.238V28.364C111.95 28.42 111.936 28.49 111.908 28.574C111.88 28.63 111.866 28.686 111.866 28.742L111.908 28.91C111.908 29.05 111.88 29.204 111.824 29.372C111.796 29.54 111.768 29.68 111.74 29.792L111.572 30.002C111.572 30.086 111.6 30.128 111.656 30.128C111.656 30.324 111.628 30.506 111.572 30.674C111.544 30.814 111.53 30.898 111.53 30.926V31.01V31.052V31.01C111.53 30.982 111.544 30.968 111.572 30.968V31.01L111.446 31.43L111.362 31.514L111.446 31.892C111.446 32.004 111.418 32.228 111.362 32.564C111.306 32.872 111.278 33.054 111.278 33.11L111.026 34.244C110.97 34.412 110.788 34.552 110.48 34.664C110.172 34.776 109.962 34.874 109.85 34.958L109.094 35.084C108.954 35.084 108.73 35.084 108.422 35.084C108.142 35.112 107.806 35.126 107.414 35.126C106.854 35.126 106.308 35.084 105.776 35C105.272 34.944 105.02 34.762 105.02 34.454C104.628 34.454 104.348 34.258 104.18 33.866C104.18 33.894 104.166 33.936 104.138 33.992C104.138 34.02 104.138 34.09 104.138 34.202C104.138 34.37 104.152 34.51 104.18 34.622C104.096 34.734 103.998 34.874 103.886 35.042C103.802 35.21 103.718 35.322 103.634 35.378C103.578 35.35 103.522 35.294 103.466 35.21C103.438 35.154 103.396 35.126 103.34 35.126C103.284 35.126 103.214 35.168 103.13 35.252C102.71 35 102.318 34.874 101.954 34.874C101.618 34.874 101.31 34.86 101.03 34.832C100.778 34.776 100.568 34.65 100.4 34.454C100.26 34.258 100.19 33.866 100.19 33.278C100.19 33.222 100.19 33.166 100.19 33.11C100.218 33.054 100.232 32.998 100.232 32.942ZM104.18 33.236C104.852 33.18 105.482 33.068 106.07 32.9C106.686 32.732 107.232 32.578 107.708 32.438L107.96 32.354C108.016 32.326 108.058 32.312 108.086 32.312C108.114 32.312 108.142 32.298 108.17 32.27L108.338 31.598L108.758 27.944V27.356C108.562 27.44 108.296 27.538 107.96 27.65C107.652 27.734 107.33 27.846 106.994 27.986C106.658 28.098 106.35 28.238 106.07 28.406C105.79 28.574 105.608 28.756 105.524 28.952C105.496 29.008 105.482 29.064 105.482 29.12C105.482 29.176 105.468 29.218 105.44 29.246L104.474 30.506L104.348 31.094V31.22C104.348 31.248 104.334 31.332 104.306 31.472C104.278 31.612 104.264 31.71 104.264 31.766C104.264 31.794 104.292 31.808 104.348 31.808C104.348 31.864 104.334 31.948 104.306 32.06C104.278 32.144 104.264 32.214 104.264 32.27L104.096 33.152L104.18 33.236ZM101.87 29.288L101.744 29.54C101.744 29.652 101.702 29.82 101.618 30.044C101.562 30.268 101.534 30.408 101.534 30.464C101.534 30.52 101.534 30.562 101.534 30.59C101.562 30.59 101.576 30.618 101.576 30.674V30.926H101.744L101.87 30.632C101.87 30.548 101.898 30.436 101.954 30.296C102.01 30.128 102.038 29.988 102.038 29.876C102.038 29.82 102.024 29.764 101.996 29.708C101.996 29.624 101.996 29.554 101.996 29.498V29.246L101.87 29.288ZM100.862 30.842C100.778 30.898 100.722 30.982 100.694 31.094C100.666 31.206 100.652 31.276 100.652 31.304V31.514L100.862 31.304L100.988 30.842H100.862ZM100.568 32.144C100.54 32.172 100.526 32.2 100.526 32.228L100.484 32.732L100.61 32.564V32.396C100.61 32.34 100.61 32.298 100.61 32.27C100.638 32.214 100.652 32.158 100.652 32.102V31.808L100.568 32.144ZM101.66 28.07C101.604 28.014 101.562 27.986 101.534 27.986C101.45 27.986 101.408 28.042 101.408 28.154C101.408 28.238 101.45 28.28 101.534 28.28C101.59 28.28 101.632 28.21 101.66 28.07ZM101.408 31.808L101.576 31.64V31.346L101.408 31.808ZM114.505 32.942C114.505 32.914 114.505 32.816 114.505 32.648C114.533 32.48 114.547 32.312 114.547 32.144C114.575 31.948 114.589 31.78 114.589 31.64C114.617 31.472 114.631 31.36 114.631 31.304L114.841 30.842C114.841 30.786 114.883 30.702 114.967 30.59C115.051 30.45 115.093 30.352 115.093 30.296L115.261 30.422V29.708L115.429 29.372C115.429 29.344 115.415 29.316 115.387 29.288C115.387 29.26 115.387 29.218 115.387 29.162C115.387 29.078 115.387 28.994 115.387 28.91C115.415 28.798 115.429 28.714 115.429 28.658C115.289 28.658 115.205 28.672 115.177 28.7L115.093 28.742L114.925 28.658C114.925 28.574 114.939 28.504 114.967 28.448L115.051 28.154C115.107 27.762 115.149 27.384 115.177 27.02C115.233 26.656 115.261 26.278 115.261 25.886L115.849 21.77C115.849 21.714 115.849 21.574 115.849 21.35C115.877 21.126 115.919 20.888 115.975 20.636L116.143 19.628L116.311 19.124C116.311 19.04 116.381 18.872 116.521 18.62C116.661 18.34 116.731 18.158 116.731 18.074V17.906V17.78C116.731 17.388 116.899 17.164 117.235 17.108C117.599 17.052 117.991 16.968 118.411 16.856L118.621 16.982C118.733 17.122 118.831 17.178 118.915 17.15C118.999 17.094 119.167 17.178 119.419 17.402L119.881 17.78L120.091 18.074V18.284C120.091 18.34 120.091 18.396 120.091 18.452C120.119 18.508 120.133 18.564 120.133 18.62L120.175 18.914C120.175 19.306 120.077 19.656 119.881 19.964C119.685 20.244 119.587 20.58 119.587 20.972V21.14L119.419 21.476C119.391 21.616 119.377 21.77 119.377 21.938C119.377 22.106 119.377 22.246 119.377 22.358L119.419 22.526C119.419 22.582 119.391 22.792 119.335 23.156C119.307 23.492 119.293 23.688 119.293 23.744L119.377 23.912C119.377 23.996 119.349 24.038 119.293 24.038L119.377 24.122V25.55C119.321 25.55 119.293 25.578 119.293 25.634V25.886L119.419 25.802C119.391 25.858 119.363 25.984 119.335 26.18C119.335 26.348 119.293 26.586 119.209 26.894C119.321 26.754 119.489 26.614 119.713 26.474C119.965 26.334 120.231 26.208 120.511 26.096C120.819 25.984 121.141 25.886 121.477 25.802C121.813 25.718 122.121 25.634 122.401 25.55C122.429 25.522 122.527 25.494 122.695 25.466C122.863 25.438 122.989 25.396 123.073 25.34L123.577 25.424H123.745C123.857 25.424 123.955 25.396 124.039 25.34L124.795 25.466L125.929 26.642L126.013 27.02L126.181 27.818L126.139 27.986H126.223C126.195 28.042 126.181 28.07 126.181 28.07C126.181 28.098 126.181 28.126 126.181 28.154C126.209 28.154 126.223 28.182 126.223 28.238V28.364C126.223 28.42 126.209 28.49 126.181 28.574C126.153 28.63 126.139 28.686 126.139 28.742L126.181 28.91C126.181 29.05 126.153 29.204 126.097 29.372C126.069 29.54 126.041 29.68 126.013 29.792L125.845 30.002C125.845 30.086 125.873 30.128 125.929 30.128C125.929 30.324 125.901 30.506 125.845 30.674C125.817 30.814 125.803 30.898 125.803 30.926V31.01V31.052V31.01C125.803 30.982 125.817 30.968 125.845 30.968V31.01L125.719 31.43L125.635 31.514L125.719 31.892C125.719 32.004 125.691 32.228 125.635 32.564C125.579 32.872 125.551 33.054 125.551 33.11L125.299 34.244C125.243 34.412 125.061 34.552 124.753 34.664C124.445 34.776 124.235 34.874 124.123 34.958L123.367 35.084C123.227 35.084 123.003 35.084 122.695 35.084C122.415 35.112 122.079 35.126 121.687 35.126C121.127 35.126 120.581 35.084 120.049 35C119.545 34.944 119.293 34.762 119.293 34.454C118.901 34.454 118.621 34.258 118.453 33.866C118.453 33.894 118.439 33.936 118.411 33.992C118.411 34.02 118.411 34.09 118.411 34.202C118.411 34.37 118.425 34.51 118.453 34.622C118.369 34.734 118.271 34.874 118.159 35.042C118.075 35.21 117.991 35.322 117.907 35.378C117.851 35.35 117.795 35.294 117.739 35.21C117.711 35.154 117.669 35.126 117.613 35.126C117.557 35.126 117.487 35.168 117.403 35.252C116.983 35 116.591 34.874 116.227 34.874C115.891 34.874 115.583 34.86 115.303 34.832C115.051 34.776 114.841 34.65 114.673 34.454C114.533 34.258 114.463 33.866 114.463 33.278C114.463 33.222 114.463 33.166 114.463 33.11C114.491 33.054 114.505 32.998 114.505 32.942ZM118.453 33.236C119.125 33.18 119.755 33.068 120.343 32.9C120.959 32.732 121.505 32.578 121.981 32.438L122.233 32.354C122.289 32.326 122.331 32.312 122.359 32.312C122.387 32.312 122.415 32.298 122.443 32.27L122.611 31.598L123.031 27.944V27.356C122.835 27.44 122.569 27.538 122.233 27.65C121.925 27.734 121.603 27.846 121.267 27.986C120.931 28.098 120.623 28.238 120.343 28.406C120.063 28.574 119.881 28.756 119.797 28.952C119.769 29.008 119.755 29.064 119.755 29.12C119.755 29.176 119.741 29.218 119.713 29.246L118.747 30.506L118.621 31.094V31.22C118.621 31.248 118.607 31.332 118.579 31.472C118.551 31.612 118.537 31.71 118.537 31.766C118.537 31.794 118.565 31.808 118.621 31.808C118.621 31.864 118.607 31.948 118.579 32.06C118.551 32.144 118.537 32.214 118.537 32.27L118.369 33.152L118.453 33.236ZM116.143 29.288L116.017 29.54C116.017 29.652 115.975 29.82 115.891 30.044C115.835 30.268 115.807 30.408 115.807 30.464C115.807 30.52 115.807 30.562 115.807 30.59C115.835 30.59 115.849 30.618 115.849 30.674V30.926H116.017L116.143 30.632C116.143 30.548 116.171 30.436 116.227 30.296C116.283 30.128 116.311 29.988 116.311 29.876C116.311 29.82 116.297 29.764 116.269 29.708C116.269 29.624 116.269 29.554 116.269 29.498V29.246L116.143 29.288ZM115.135 30.842C115.051 30.898 114.995 30.982 114.967 31.094C114.939 31.206 114.925 31.276 114.925 31.304V31.514L115.135 31.304L115.261 30.842H115.135ZM114.841 32.144C114.813 32.172 114.799 32.2 114.799 32.228L114.757 32.732L114.883 32.564V32.396C114.883 32.34 114.883 32.298 114.883 32.27C114.911 32.214 114.925 32.158 114.925 32.102V31.808L114.841 32.144ZM115.933 28.07C115.877 28.014 115.835 27.986 115.807 27.986C115.723 27.986 115.681 28.042 115.681 28.154C115.681 28.238 115.723 28.28 115.807 28.28C115.863 28.28 115.905 28.21 115.933 28.07ZM115.681 31.808L115.849 31.64V31.346L115.681 31.808ZM129.283 35C129.059 34.888 128.919 34.748 128.863 34.58C128.807 34.412 128.779 34.202 128.779 33.95V33.32L129.493 26.012C129.493 25.984 129.479 25.97 129.451 25.97C129.451 25.942 129.451 25.9 129.451 25.844C129.451 25.872 129.465 25.774 129.493 25.55C129.521 25.326 129.563 25.074 129.619 24.794C129.675 24.514 129.731 24.262 129.787 24.038C129.843 23.786 129.899 23.66 129.955 23.66C130.011 23.66 130.109 23.688 130.249 23.744C130.417 23.8 130.515 23.828 130.543 23.828C130.851 23.912 131.201 23.996 131.593 24.08C132.013 24.136 132.405 24.234 132.769 24.374C133.161 24.486 133.483 24.668 133.735 24.92C134.015 25.172 134.155 25.522 134.155 25.97L133.693 26.894C133.553 27.174 133.427 27.468 133.315 27.776C133.231 28.056 133.175 28.336 133.147 28.616C133.147 28.644 133.147 28.742 133.147 28.91C133.147 29.05 133.133 29.232 133.105 29.456C133.105 29.652 133.105 29.862 133.105 30.086C133.105 30.31 133.105 30.506 133.105 30.674V31.346L133.189 31.43C133.189 31.458 133.161 31.514 133.105 31.598C133.077 31.654 133.063 31.724 133.063 31.808L133.105 31.934C133.105 31.962 133.077 31.99 133.021 32.018C132.965 32.046 132.923 32.06 132.895 32.06L132.979 32.354C132.951 32.354 132.937 32.368 132.937 32.396L132.853 32.522C132.853 32.494 132.839 32.48 132.811 32.48C132.811 32.452 132.811 32.424 132.811 32.396L132.685 32.354L132.559 32.438C132.531 32.494 132.503 32.662 132.475 32.942C132.447 33.222 132.405 33.39 132.349 33.446H132.433C132.517 33.446 132.629 33.334 132.769 33.11C132.937 32.858 133.035 32.732 133.063 32.732C133.007 33.04 132.965 33.404 132.937 33.824C132.937 34.216 132.937 34.566 132.937 34.874L133.063 35.21L132.601 35.084L132.433 35.21C132.377 35.21 132.265 35.238 132.097 35.294L131.929 35.378L131.299 35.084H131.089L130.459 35.378L130.123 35.336V35.168H129.493L129.283 35ZM129.451 20.3C129.451 19.712 129.535 19.194 129.703 18.746C129.899 18.298 130.123 17.822 130.375 17.318L130.585 17.444C130.613 17.444 130.655 17.472 130.711 17.528C130.795 17.556 130.879 17.57 130.963 17.57H132.055C132.195 17.57 132.349 17.668 132.517 17.864C132.685 18.06 132.797 18.158 132.853 18.158C132.881 18.158 132.909 18.158 132.937 18.158C132.993 18.13 133.049 18.116 133.105 18.116C133.301 18.116 133.483 18.186 133.651 18.326C133.847 18.438 134.001 18.592 134.113 18.788C134.253 18.984 134.351 19.18 134.407 19.376C134.491 19.572 134.533 19.754 134.533 19.922C134.533 20.118 134.393 20.328 134.113 20.552C133.861 20.776 133.553 20.986 133.189 21.182C132.853 21.35 132.489 21.504 132.097 21.644C131.733 21.756 131.439 21.812 131.215 21.812C130.767 21.812 130.361 21.658 129.997 21.35C129.661 21.042 129.479 20.692 129.451 20.3ZM131.929 32.648C131.929 32.704 131.929 32.802 131.929 32.942C131.957 33.082 131.999 33.18 132.055 33.236L132.139 32.732L132.349 32.648V32.438C132.265 32.438 132.167 32.466 132.055 32.522C131.971 32.578 131.929 32.62 131.929 32.648ZM131.971 35.084L132.307 35.042V34.832L131.887 34.79L131.971 35.084ZM132.559 35.378C132.643 35.434 132.685 35.504 132.685 35.588C132.685 35.7 132.643 35.756 132.559 35.756C132.475 35.756 132.433 35.7 132.433 35.588C132.433 35.448 132.475 35.378 132.559 35.378ZM132.727 31.598V31.724C132.727 31.78 132.755 31.808 132.811 31.808L133.021 31.598V31.346L132.727 31.598ZM149.369 24.836L149.285 25.046L149.327 24.836L148.277 25.256C148.249 25.284 148.207 25.298 148.151 25.298C148.095 25.298 148.067 25.27 148.067 25.214L147.857 25.256C147.633 25.284 147.339 25.312 146.975 25.34C146.639 25.368 146.303 25.396 145.967 25.424C145.631 25.452 145.337 25.508 145.085 25.592C144.861 25.648 144.749 25.732 144.749 25.844V25.886L144.833 25.97C144.777 26.026 144.735 26.054 144.707 26.054C144.679 26.054 144.665 26.082 144.665 26.138C144.665 26.194 144.693 26.264 144.749 26.348C144.749 26.488 144.707 26.558 144.623 26.558C144.539 26.558 144.497 26.67 144.497 26.894C144.497 27.006 144.581 27.062 144.749 27.062C144.581 27.146 144.497 27.328 144.497 27.608C144.497 27.832 144.539 27.958 144.623 27.986L144.749 28.406C144.553 28.602 144.455 28.784 144.455 28.952C144.455 29.092 144.469 29.19 144.497 29.246C144.497 29.47 144.483 29.624 144.455 29.708C144.455 29.792 144.455 29.848 144.455 29.876C144.455 29.876 144.441 29.89 144.413 29.918C144.413 29.918 144.413 29.96 144.413 30.044L144.455 30.086C144.455 30.31 144.399 30.59 144.287 30.926C144.203 31.234 144.133 31.416 144.077 31.472H143.993V31.64H144.203C144.147 31.696 144.091 31.738 144.035 31.766C143.979 31.794 143.951 31.836 143.951 31.892C143.951 31.92 143.965 31.948 143.993 31.976H144.287L143.993 33.32L144.161 33.404C144.329 33.46 144.567 33.488 144.875 33.488C145.127 33.46 145.351 33.404 145.547 33.32C145.743 33.208 145.953 33.138 146.177 33.11H146.303C146.415 33.11 146.541 33.11 146.681 33.11C146.849 33.082 147.003 33.068 147.143 33.068H149.117C149.145 33.068 149.215 33.096 149.327 33.152C149.439 33.18 149.551 33.222 149.663 33.278C149.803 33.334 149.915 33.39 149.999 33.446C150.083 33.502 150.125 33.53 150.125 33.53C150.125 33.67 150.041 33.838 149.873 34.034C149.705 34.202 149.551 34.342 149.411 34.454L147.521 35.042L145.085 35.294C144.861 35.294 144.553 35.392 144.161 35.588C143.769 35.812 143.377 35.924 142.985 35.924V35.756L141.683 35.63C141.375 35.406 141.151 35.266 141.011 35.21C140.871 35.154 140.759 35.112 140.675 35.084C140.591 35.084 140.521 35.07 140.465 35.042C140.409 35.014 140.311 34.93 140.171 34.79C140.171 34.706 140.171 34.538 140.171 34.286C140.171 34.006 140.171 33.726 140.171 33.446C140.199 33.166 140.227 32.914 140.255 32.69C140.283 32.438 140.325 32.284 140.381 32.228L140.507 34.034L140.675 34.286C140.675 33.894 140.675 33.306 140.675 32.522C140.703 31.738 140.759 30.828 140.843 29.792L140.801 29.876C140.773 29.904 140.745 29.848 140.717 29.708C140.717 29.568 140.717 29.414 140.717 29.246C140.717 28.938 140.731 28.784 140.759 28.784H140.801L140.927 29.246L141.263 26.894H141.095V26.474V26.18C140.927 26.236 140.731 26.264 140.507 26.264C140.283 26.264 140.073 26.334 139.877 26.474L138.995 26.516L138.659 26.474L138.449 26.558L138.323 26.432C138.099 26.432 137.833 26.236 137.525 25.844C137.217 25.452 137.063 25.06 137.063 24.668C137.063 24.5 137.231 24.374 137.567 24.29C137.931 24.178 138.351 24.08 138.827 23.996C139.303 23.912 139.779 23.842 140.255 23.786C140.759 23.702 141.165 23.618 141.473 23.534C141.557 23.282 141.613 22.946 141.641 22.526C141.697 22.106 141.725 21.714 141.725 21.35C141.753 20.986 141.767 20.692 141.767 20.468C141.795 20.244 141.809 20.188 141.809 20.3C141.809 20.272 141.837 20.174 141.893 20.006C141.949 19.81 142.005 19.614 142.061 19.418C142.145 19.194 142.215 18.998 142.271 18.83C142.327 18.634 142.355 18.508 142.355 18.452C142.327 18.424 142.313 18.382 142.313 18.326C142.313 18.242 142.341 18.13 142.397 17.99C142.453 17.85 142.481 17.738 142.481 17.654L142.565 17.612C142.761 17.612 143.041 17.668 143.405 17.78C143.797 17.892 144.175 18.046 144.539 18.242C144.903 18.41 145.225 18.634 145.505 18.914C145.785 19.166 145.925 19.446 145.925 19.754C145.925 20.062 145.785 20.426 145.505 20.846C145.225 21.266 145.085 21.714 145.085 22.19L144.833 23.156C145.589 23.156 146.359 23.128 147.143 23.072C147.955 22.988 148.557 22.946 148.949 22.946C149.173 22.946 149.355 22.988 149.495 23.072C149.663 23.156 149.747 23.352 149.747 23.66L149.327 24.836H149.369ZM140.381 31.85L140.171 31.892C140.171 31.836 140.171 31.64 140.171 31.304C140.199 30.968 140.241 30.758 140.297 30.674L140.381 31.85ZM142.019 33.194L141.809 33.656V34.076L142.229 33.194H142.019ZM142.229 32.354C142.117 32.354 142.061 32.424 142.061 32.564C142.061 32.704 142.117 32.774 142.229 32.774C142.369 32.774 142.439 32.704 142.439 32.564C142.439 32.424 142.369 32.354 142.229 32.354ZM163.954 35.294L163.114 35.21C162.638 35.154 162.19 34.986 161.77 34.706C161.35 34.398 161.126 34.02 161.098 33.572C161.098 33.488 161.112 33.432 161.14 33.404L161.35 33.362L161.434 32.984C161.378 32.984 161.322 32.956 161.266 32.9L161.308 32.732L161.392 32.648L161.308 32.312C161.308 32.284 161.322 32.27 161.35 32.27C161.378 32.298 161.406 32.312 161.434 32.312L161.77 31.892L161.854 31.934C161.798 31.934 161.756 31.99 161.728 32.102C161.728 32.214 161.728 32.34 161.728 32.48V32.648C161.728 32.676 161.742 32.704 161.77 32.732H161.854C161.882 32.704 161.896 32.648 161.896 32.564V32.27C161.896 32.214 161.91 32.102 161.938 31.934C161.994 31.738 162.022 31.612 162.022 31.556V30.254C162.022 30.198 162.036 29.96 162.064 29.54C162.12 29.12 162.176 28.672 162.232 28.196C162.288 27.72 162.33 27.286 162.358 26.894C162.414 26.474 162.442 26.236 162.442 26.18L162.694 25.76L162.442 25.172C162.442 25.032 162.47 24.794 162.526 24.458C162.582 24.094 162.61 23.856 162.61 23.744L162.736 23.156L163.03 22.736L162.778 22.568V21.77L162.988 21.098L162.862 21.056L163.324 17.864C163.324 17.836 163.31 17.822 163.282 17.822C163.282 17.794 163.282 17.766 163.282 17.738C163.282 17.514 163.324 17.262 163.408 16.982C163.492 16.674 163.534 16.478 163.534 16.394L164.29 16.352L165.046 16.1H165.55C165.662 16.1 165.858 16.184 166.138 16.352C166.418 16.52 166.628 16.674 166.768 16.814L167.272 17.276C167.3 17.332 167.342 17.43 167.398 17.57C167.454 17.71 167.496 17.78 167.524 17.78L167.566 17.99C167.538 18.046 167.496 18.228 167.44 18.536C167.412 18.816 167.342 19.124 167.23 19.46C167.258 19.516 167.272 19.586 167.272 19.67C167.272 19.754 167.244 19.838 167.188 19.922C167.16 19.978 167.118 20.034 167.062 20.09V20.132L167.02 20.174C167.02 20.202 167.034 20.216 167.062 20.216H167.23C167.23 20.328 167.16 20.454 167.02 20.594C167.076 20.65 167.104 20.692 167.104 20.72C167.104 20.776 167.048 20.874 166.936 21.014C166.852 21.126 166.81 21.294 166.81 21.518L166.852 21.644C166.824 21.7 166.796 21.728 166.768 21.728C166.74 21.728 166.726 21.742 166.726 21.77C166.726 21.826 166.768 21.896 166.852 21.98C166.824 22.12 166.768 22.19 166.684 22.19C166.6 22.19 166.558 22.316 166.558 22.568C166.558 22.624 166.642 22.666 166.81 22.694C166.614 22.806 166.516 22.862 166.516 22.862C166.516 22.89 166.53 22.904 166.558 22.904C166.586 22.904 166.6 22.918 166.6 22.946C166.6 22.946 166.628 22.946 166.684 22.946L166.852 23.408C166.768 23.52 166.698 23.618 166.642 23.702C166.586 23.758 166.558 23.842 166.558 23.954V23.996V24.08C166.558 24.136 166.586 24.192 166.642 24.248C166.642 24.64 166.6 24.948 166.516 25.172C166.46 25.368 166.432 25.536 166.432 25.676C166.432 25.76 166.446 25.816 166.474 25.844L166.6 25.928C166.572 26.124 166.516 26.334 166.432 26.558C166.376 26.754 166.32 26.866 166.264 26.894H166.18L166.138 27.062L166.348 27.02C166.292 27.076 166.236 27.132 166.18 27.188C166.124 27.216 166.096 27.258 166.096 27.314C166.096 27.342 166.11 27.356 166.138 27.356H166.39L166.138 28.196H166.348C166.376 28.28 166.376 28.392 166.348 28.532C166.348 28.644 166.376 28.728 166.432 28.784L166.348 28.91C166.348 29.218 166.334 29.456 166.306 29.624C166.306 29.764 166.292 29.946 166.264 30.17L166.18 30.254L166.39 30.464C166.362 30.52 166.334 30.548 166.306 30.548C166.306 30.548 166.278 30.576 166.222 30.632L166.264 30.506C166.096 30.618 165.984 30.688 165.928 30.716L166.348 30.758C166.18 30.926 166.054 31.01 165.97 31.01H165.928H165.802V31.22C165.802 31.612 165.858 31.976 165.97 32.312C166.082 32.648 166.348 32.816 166.768 32.816C166.824 32.816 166.866 32.816 166.894 32.816C166.922 32.788 166.95 32.774 166.978 32.774C166.978 32.858 167.006 32.9 167.062 32.9C167.174 32.9 167.37 32.858 167.65 32.774C167.958 32.69 168.308 32.648 168.7 32.648H169.078C169.302 32.648 169.456 32.592 169.54 32.48C169.624 32.34 169.722 32.242 169.834 32.186C169.918 32.214 169.96 32.242 169.96 32.27C169.96 32.27 169.988 32.298 170.044 32.354C170.212 32.186 170.394 32.102 170.59 32.102C170.618 32.13 170.688 32.144 170.8 32.144C170.94 32.144 171.01 32.2 171.01 32.312L171.178 32.228C171.234 32.2 171.262 32.172 171.262 32.144C171.29 32.116 171.318 32.102 171.346 32.102C171.542 32.298 171.794 32.41 172.102 32.438L172.018 32.648C172.046 32.676 172.074 32.69 172.102 32.69C172.158 32.69 172.186 32.676 172.186 32.648C172.214 32.592 172.298 32.564 172.438 32.564C172.438 32.592 172.578 32.662 172.858 32.774C173.138 32.886 173.278 33.012 173.278 33.152C173.278 33.208 173.264 33.25 173.236 33.278L173.278 33.614C173.082 33.698 172.9 33.768 172.732 33.824C172.564 33.88 172.424 33.964 172.312 34.076C172.228 34.076 172.144 34.048 172.06 33.992C172.004 33.936 171.99 33.922 172.018 33.95C171.99 34.006 171.976 34.076 171.976 34.16V34.202C171.976 34.23 172.004 34.244 172.06 34.244C171.78 34.272 171.528 34.314 171.304 34.37C171.108 34.398 170.884 34.412 170.632 34.412C170.548 34.412 170.464 34.412 170.38 34.412C170.296 34.384 170.198 34.37 170.086 34.37C169.834 34.37 169.512 34.482 169.12 34.706C168.756 34.902 168.364 35 167.944 35H167.608C167.496 35 167.342 35 167.146 35C166.95 35.028 166.754 35.056 166.558 35.084C166.39 35.112 166.236 35.154 166.096 35.21C165.984 35.266 165.928 35.35 165.928 35.462L165.844 35.294C165.788 35.434 165.718 35.532 165.634 35.588C165.578 35.644 165.522 35.728 165.466 35.84C165.41 35.784 165.382 35.714 165.382 35.63C165.382 35.49 165.41 35.35 165.466 35.21C165.382 35.266 165.2 35.294 164.92 35.294C164.864 35.154 164.794 35.056 164.71 35C164.626 34.972 164.584 34.944 164.584 34.916L164.122 35.21L163.954 35.294ZM173.068 33.11C173.012 33.11 172.97 33.124 172.942 33.152C172.942 33.18 172.97 33.222 173.026 33.278C173.082 33.278 173.11 33.236 173.11 33.152C173.11 33.124 173.096 33.11 173.068 33.11ZM175.876 35C175.652 34.888 175.512 34.748 175.456 34.58C175.4 34.412 175.372 34.202 175.372 33.95V33.32L176.086 26.012C176.086 25.984 176.072 25.97 176.044 25.97C176.044 25.942 176.044 25.9 176.044 25.844C176.044 25.872 176.058 25.774 176.086 25.55C176.114 25.326 176.156 25.074 176.212 24.794C176.268 24.514 176.324 24.262 176.38 24.038C176.436 23.786 176.492 23.66 176.548 23.66C176.604 23.66 176.702 23.688 176.842 23.744C177.01 23.8 177.108 23.828 177.136 23.828C177.444 23.912 177.794 23.996 178.186 24.08C178.606 24.136 178.998 24.234 179.362 24.374C179.754 24.486 180.076 24.668 180.328 24.92C180.608 25.172 180.748 25.522 180.748 25.97L180.286 26.894C180.146 27.174 180.02 27.468 179.908 27.776C179.824 28.056 179.768 28.336 179.74 28.616C179.74 28.644 179.74 28.742 179.74 28.91C179.74 29.05 179.726 29.232 179.698 29.456C179.698 29.652 179.698 29.862 179.698 30.086C179.698 30.31 179.698 30.506 179.698 30.674V31.346L179.782 31.43C179.782 31.458 179.754 31.514 179.698 31.598C179.67 31.654 179.656 31.724 179.656 31.808L179.698 31.934C179.698 31.962 179.67 31.99 179.614 32.018C179.558 32.046 179.516 32.06 179.488 32.06L179.572 32.354C179.544 32.354 179.53 32.368 179.53 32.396L179.446 32.522C179.446 32.494 179.432 32.48 179.404 32.48C179.404 32.452 179.404 32.424 179.404 32.396L179.278 32.354L179.152 32.438C179.124 32.494 179.096 32.662 179.068 32.942C179.04 33.222 178.998 33.39 178.942 33.446H179.026C179.11 33.446 179.222 33.334 179.362 33.11C179.53 32.858 179.628 32.732 179.656 32.732C179.6 33.04 179.558 33.404 179.53 33.824C179.53 34.216 179.53 34.566 179.53 34.874L179.656 35.21L179.194 35.084L179.026 35.21C178.97 35.21 178.858 35.238 178.69 35.294L178.522 35.378L177.892 35.084H177.682L177.052 35.378L176.716 35.336V35.168H176.086L175.876 35ZM176.044 20.3C176.044 19.712 176.128 19.194 176.296 18.746C176.492 18.298 176.716 17.822 176.968 17.318L177.178 17.444C177.206 17.444 177.248 17.472 177.304 17.528C177.388 17.556 177.472 17.57 177.556 17.57H178.648C178.788 17.57 178.942 17.668 179.11 17.864C179.278 18.06 179.39 18.158 179.446 18.158C179.474 18.158 179.502 18.158 179.53 18.158C179.586 18.13 179.642 18.116 179.698 18.116C179.894 18.116 180.076 18.186 180.244 18.326C180.44 18.438 180.594 18.592 180.706 18.788C180.846 18.984 180.944 19.18 181 19.376C181.084 19.572 181.126 19.754 181.126 19.922C181.126 20.118 180.986 20.328 180.706 20.552C180.454 20.776 180.146 20.986 179.782 21.182C179.446 21.35 179.082 21.504 178.69 21.644C178.326 21.756 178.032 21.812 177.808 21.812C177.36 21.812 176.954 21.658 176.59 21.35C176.254 21.042 176.072 20.692 176.044 20.3ZM178.522 32.648C178.522 32.704 178.522 32.802 178.522 32.942C178.55 33.082 178.592 33.18 178.648 33.236L178.732 32.732L178.942 32.648V32.438C178.858 32.438 178.76 32.466 178.648 32.522C178.564 32.578 178.522 32.62 178.522 32.648ZM178.564 35.084L178.9 35.042V34.832L178.48 34.79L178.564 35.084ZM179.152 35.378C179.236 35.434 179.278 35.504 179.278 35.588C179.278 35.7 179.236 35.756 179.152 35.756C179.068 35.756 179.026 35.7 179.026 35.588C179.026 35.448 179.068 35.378 179.152 35.378ZM179.32 31.598V31.724C179.32 31.78 179.348 31.808 179.404 31.808L179.614 31.598V31.346L179.32 31.598ZM183.698 32.942C183.698 32.914 183.698 32.816 183.698 32.648C183.726 32.48 183.74 32.312 183.74 32.144C183.768 31.948 183.782 31.78 183.782 31.64C183.81 31.472 183.824 31.36 183.824 31.304L184.034 30.842C184.034 30.786 184.076 30.702 184.16 30.59C184.244 30.45 184.286 30.352 184.286 30.296L184.454 30.422V29.708L184.622 29.372C184.622 29.344 184.608 29.316 184.58 29.288C184.58 29.26 184.58 29.218 184.58 29.162C184.58 29.078 184.58 28.994 184.58 28.91C184.608 28.798 184.622 28.714 184.622 28.658C184.482 28.658 184.398 28.672 184.37 28.7L184.286 28.742L184.118 28.658C184.118 28.574 184.132 28.504 184.16 28.448L184.244 28.154C184.3 27.762 184.342 27.384 184.37 27.02C184.426 26.656 184.454 26.278 184.454 25.886L185.042 21.77C185.042 21.714 185.042 21.574 185.042 21.35C185.07 21.126 185.112 20.888 185.168 20.636L185.336 19.628L185.504 19.124C185.504 19.04 185.574 18.872 185.714 18.62C185.854 18.34 185.924 18.158 185.924 18.074V17.906V17.78C185.924 17.388 186.092 17.164 186.428 17.108C186.792 17.052 187.184 16.968 187.604 16.856L187.814 16.982C187.926 17.122 188.024 17.178 188.108 17.15C188.192 17.094 188.36 17.178 188.612 17.402L189.074 17.78L189.284 18.074V18.284C189.284 18.34 189.284 18.396 189.284 18.452C189.312 18.508 189.326 18.564 189.326 18.62L189.368 18.914C189.368 19.306 189.27 19.656 189.074 19.964C188.878 20.244 188.78 20.58 188.78 20.972V21.14L188.612 21.476C188.584 21.616 188.57 21.77 188.57 21.938C188.57 22.106 188.57 22.246 188.57 22.358L188.612 22.526C188.612 22.582 188.584 22.792 188.528 23.156C188.5 23.492 188.486 23.688 188.486 23.744L188.57 23.912C188.57 23.996 188.542 24.038 188.486 24.038L188.57 24.122V25.55C188.514 25.55 188.486 25.578 188.486 25.634V25.886L188.612 25.802C188.584 25.858 188.556 25.984 188.528 26.18C188.528 26.348 188.486 26.586 188.402 26.894C188.514 26.754 188.682 26.614 188.906 26.474C189.158 26.334 189.424 26.208 189.704 26.096C190.012 25.984 190.334 25.886 190.67 25.802C191.006 25.718 191.314 25.634 191.594 25.55C191.622 25.522 191.72 25.494 191.888 25.466C192.056 25.438 192.182 25.396 192.266 25.34L192.77 25.424H192.938C193.05 25.424 193.148 25.396 193.232 25.34L193.988 25.466L195.122 26.642L195.206 27.02L195.374 27.818L195.332 27.986H195.416C195.388 28.042 195.374 28.07 195.374 28.07C195.374 28.098 195.374 28.126 195.374 28.154C195.402 28.154 195.416 28.182 195.416 28.238V28.364C195.416 28.42 195.402 28.49 195.374 28.574C195.346 28.63 195.332 28.686 195.332 28.742L195.374 28.91C195.374 29.05 195.346 29.204 195.29 29.372C195.262 29.54 195.234 29.68 195.206 29.792L195.038 30.002C195.038 30.086 195.066 30.128 195.122 30.128C195.122 30.324 195.094 30.506 195.038 30.674C195.01 30.814 194.996 30.898 194.996 30.926V31.01V31.052V31.01C194.996 30.982 195.01 30.968 195.038 30.968V31.01L194.912 31.43L194.828 31.514L194.912 31.892C194.912 32.004 194.884 32.228 194.828 32.564C194.772 32.872 194.744 33.054 194.744 33.11L194.492 34.244C194.436 34.412 194.254 34.552 193.946 34.664C193.638 34.776 193.428 34.874 193.316 34.958L192.56 35.084C192.42 35.084 192.196 35.084 191.888 35.084C191.608 35.112 191.272 35.126 190.88 35.126C190.32 35.126 189.774 35.084 189.242 35C188.738 34.944 188.486 34.762 188.486 34.454C188.094 34.454 187.814 34.258 187.646 33.866C187.646 33.894 187.632 33.936 187.604 33.992C187.604 34.02 187.604 34.09 187.604 34.202C187.604 34.37 187.618 34.51 187.646 34.622C187.562 34.734 187.464 34.874 187.352 35.042C187.268 35.21 187.184 35.322 187.1 35.378C187.044 35.35 186.988 35.294 186.932 35.21C186.904 35.154 186.862 35.126 186.806 35.126C186.75 35.126 186.68 35.168 186.596 35.252C186.176 35 185.784 34.874 185.42 34.874C185.084 34.874 184.776 34.86 184.496 34.832C184.244 34.776 184.034 34.65 183.866 34.454C183.726 34.258 183.656 33.866 183.656 33.278C183.656 33.222 183.656 33.166 183.656 33.11C183.684 33.054 183.698 32.998 183.698 32.942ZM187.646 33.236C188.318 33.18 188.948 33.068 189.536 32.9C190.152 32.732 190.698 32.578 191.174 32.438L191.426 32.354C191.482 32.326 191.524 32.312 191.552 32.312C191.58 32.312 191.608 32.298 191.636 32.27L191.804 31.598L192.224 27.944V27.356C192.028 27.44 191.762 27.538 191.426 27.65C191.118 27.734 190.796 27.846 190.46 27.986C190.124 28.098 189.816 28.238 189.536 28.406C189.256 28.574 189.074 28.756 188.99 28.952C188.962 29.008 188.948 29.064 188.948 29.12C188.948 29.176 188.934 29.218 188.906 29.246L187.94 30.506L187.814 31.094V31.22C187.814 31.248 187.8 31.332 187.772 31.472C187.744 31.612 187.73 31.71 187.73 31.766C187.73 31.794 187.758 31.808 187.814 31.808C187.814 31.864 187.8 31.948 187.772 32.06C187.744 32.144 187.73 32.214 187.73 32.27L187.562 33.152L187.646 33.236ZM185.336 29.288L185.21 29.54C185.21 29.652 185.168 29.82 185.084 30.044C185.028 30.268 185 30.408 185 30.464C185 30.52 185 30.562 185 30.59C185.028 30.59 185.042 30.618 185.042 30.674V30.926H185.21L185.336 30.632C185.336 30.548 185.364 30.436 185.42 30.296C185.476 30.128 185.504 29.988 185.504 29.876C185.504 29.82 185.49 29.764 185.462 29.708C185.462 29.624 185.462 29.554 185.462 29.498V29.246L185.336 29.288ZM184.328 30.842C184.244 30.898 184.188 30.982 184.16 31.094C184.132 31.206 184.118 31.276 184.118 31.304V31.514L184.328 31.304L184.454 30.842H184.328ZM184.034 32.144C184.006 32.172 183.992 32.2 183.992 32.228L183.95 32.732L184.076 32.564V32.396C184.076 32.34 184.076 32.298 184.076 32.27C184.104 32.214 184.118 32.158 184.118 32.102V31.808L184.034 32.144ZM185.126 28.07C185.07 28.014 185.028 27.986 185 27.986C184.916 27.986 184.874 28.042 184.874 28.154C184.874 28.238 184.916 28.28 185 28.28C185.056 28.28 185.098 28.21 185.126 28.07ZM184.874 31.808L185.042 31.64V31.346L184.874 31.808ZM201.878 31.934V32.27C201.878 32.466 201.906 32.62 201.962 32.732L202.046 32.69C202.046 32.802 202.032 32.942 202.004 33.11C202.004 33.25 201.948 33.348 201.836 33.404L201.626 35.252C201.514 35.28 201.388 35.294 201.248 35.294H201.038C200.982 35.294 200.912 35.322 200.828 35.378L200.786 35.042C200.702 35.098 200.66 35.182 200.66 35.294V35.546V35.714C200.604 35.658 200.534 35.63 200.45 35.63C200.394 35.63 200.366 35.63 200.366 35.63C200.394 35.658 200.38 35.672 200.324 35.672C200.24 35.672 200.072 35.616 199.82 35.504C199.568 35.392 199.288 35.336 198.98 35.336C198.812 35.336 198.686 35.35 198.602 35.378C198.602 35.322 198.616 35.252 198.644 35.168C198.672 35.084 198.686 35.014 198.686 34.958C198.546 34.818 198.448 34.622 198.392 34.37C198.364 34.118 198.238 33.992 198.014 33.992H197.93C198.014 33.852 198.056 33.698 198.056 33.53C198.084 33.334 198.098 33.166 198.098 33.026C198.098 32.97 198.07 32.802 198.014 32.522L197.972 31.976V31.64V31.472C198 31.416 198.056 31.36 198.14 31.304C198.252 31.248 198.336 31.192 198.392 31.136C198.392 31.08 198.364 30.996 198.308 30.884C198.252 30.772 198.224 30.66 198.224 30.548L198.434 30.296C198.406 30.296 198.392 30.226 198.392 30.086C198.392 29.918 198.392 29.722 198.392 29.498C198.42 29.274 198.434 29.092 198.434 28.952C198.434 28.784 198.42 28.7 198.392 28.7L198.77 23.912C198.798 23.716 198.854 23.604 198.938 23.576C199.05 23.52 199.176 23.492 199.316 23.492C199.456 23.492 199.638 23.534 199.862 23.618C200.086 23.674 200.296 23.744 200.492 23.828C200.716 23.912 200.912 24.01 201.08 24.122C201.248 24.206 201.36 24.29 201.416 24.374C201.444 24.402 201.486 24.5 201.542 24.668C201.626 24.836 201.71 25.018 201.794 25.214C201.878 25.382 201.962 25.55 202.046 25.718C202.158 25.858 202.256 25.928 202.34 25.928L202.466 25.844C202.83 25.62 203.096 25.424 203.264 25.256C203.432 25.06 203.726 24.92 204.146 24.836C204.146 24.724 204.328 24.57 204.692 24.374C205.084 24.15 205.49 23.94 205.91 23.744C206.358 23.52 206.75 23.338 207.086 23.198C207.422 23.03 207.534 22.946 207.422 22.946C207.562 22.946 207.772 23.002 208.052 23.114C208.332 23.226 208.584 23.394 208.808 23.618L209.606 24.416L209.018 25.214L208.388 25.424L208.472 25.592C208.332 25.76 208.094 25.858 207.758 25.886C207.45 25.914 207.212 25.984 207.044 26.096C207.044 26.124 207.058 26.138 207.086 26.138L207.128 26.18C206.708 26.292 206.302 26.418 205.91 26.558C205.574 26.698 205.224 26.852 204.86 27.02C204.496 27.16 204.202 27.328 203.978 27.524L203.348 28.196C203.348 28.168 203.264 28.21 203.096 28.322C202.956 28.406 202.788 28.532 202.592 28.7C202.424 28.84 202.256 29.008 202.088 29.204C201.92 29.372 201.836 29.526 201.836 29.666V29.708L202.172 29.834L201.92 31.934H201.878ZM205.7 24.836C205.308 24.948 204.972 25.102 204.692 25.298L204.272 25.55L204.314 25.634C204.678 25.438 205.042 25.27 205.406 25.13C205.798 24.962 206.134 24.85 206.414 24.794C206.302 24.794 206.176 24.794 206.036 24.794C205.896 24.794 205.784 24.808 205.7 24.836ZM203.516 25.76C203.46 25.816 203.334 25.914 203.138 26.054C202.942 26.166 202.816 26.25 202.76 26.306L202.508 26.516H202.55C202.606 26.432 202.704 26.362 202.844 26.306C202.984 26.222 203.124 26.152 203.264 26.096C203.432 26.012 203.572 25.956 203.684 25.928C203.796 25.872 203.852 25.816 203.852 25.76C203.852 25.704 203.768 25.648 203.6 25.592C203.572 25.592 203.558 25.62 203.558 25.676C203.558 25.704 203.544 25.732 203.516 25.76ZM217.371 33.656C217.875 33.796 218.127 33.894 218.127 33.95L218.085 34.328C218.085 34.636 218.141 34.902 218.253 35.126C218.309 35.238 218.365 35.308 218.421 35.336C218.421 35.392 218.295 35.42 218.043 35.42C217.819 35.448 217.539 35.476 217.203 35.504C216.895 35.532 216.573 35.546 216.237 35.546C215.929 35.574 215.677 35.588 215.481 35.588H215.187C214.571 35.588 214.053 35.49 213.633 35.294C213.213 35.098 212.877 34.762 212.625 34.286L212.457 34.202L212.373 33.656C212.317 33.432 212.261 33.222 212.205 33.026C212.149 32.83 212.121 32.62 212.121 32.396C212.149 32.228 212.219 32.088 212.331 31.976C212.443 31.836 212.541 31.724 212.625 31.64C212.737 31.528 212.821 31.444 212.877 31.388C212.933 31.332 212.919 31.304 212.835 31.304C212.835 31.164 212.919 30.982 213.087 30.758C213.255 30.534 213.465 30.31 213.717 30.086C213.969 29.862 214.221 29.652 214.473 29.456C214.753 29.232 214.977 29.064 215.145 28.952L215.481 29.036C215.537 29.036 215.677 29.008 215.901 28.952C216.153 28.868 216.349 28.798 216.489 28.742L217.077 28.322C217.273 28.294 217.371 28.196 217.371 28.028L219.009 27.272C219.037 27.216 219.079 27.16 219.135 27.104C219.219 27.02 219.261 26.964 219.261 26.936L218.925 25.592C218.925 25.536 218.883 25.508 218.799 25.508C218.771 25.508 218.757 25.522 218.757 25.55C218.757 25.55 218.743 25.55 218.715 25.55H218.631C218.491 25.55 218.239 25.578 217.875 25.634C217.539 25.69 217.189 25.76 216.825 25.844C216.461 25.928 216.125 25.998 215.817 26.054C215.537 26.11 215.397 26.138 215.397 26.138C215.369 26.166 215.327 26.18 215.271 26.18C215.103 26.18 214.921 26.096 214.725 25.928C214.557 25.76 214.403 25.606 214.263 25.466L213.843 25.298L213.633 25.13C213.633 25.074 213.619 25.032 213.591 25.004C213.563 24.948 213.535 24.892 213.507 24.836L213.423 24.668C213.423 24.528 213.647 24.402 214.095 24.29C214.571 24.178 215.159 24.08 215.859 23.996C216.559 23.912 217.301 23.856 218.085 23.828C218.897 23.772 219.639 23.744 220.311 23.744H220.437C220.829 23.744 221.151 23.814 221.403 23.954C221.655 24.066 221.865 24.22 222.033 24.416C222.201 24.584 222.341 24.78 222.453 25.004C222.565 25.2 222.691 25.382 222.831 25.55V26.264C222.831 26.572 222.831 26.824 222.831 27.02C222.859 27.188 222.873 27.356 222.873 27.524C222.873 27.692 222.859 27.874 222.831 28.07C222.803 28.238 222.747 28.476 222.663 28.784C222.663 28.924 222.691 29.05 222.747 29.162C222.803 29.246 222.831 29.344 222.831 29.456V29.498L222.873 29.792L222.537 30.17L222.789 30.464L222.495 30.842C222.495 30.898 222.467 30.968 222.411 31.052C222.383 31.136 222.369 31.206 222.369 31.262L222.411 31.304L222.327 31.976L222.663 32.06L222.621 32.312L222.369 32.438L222.453 32.606L222.411 32.9C222.271 33.152 222.173 33.516 222.117 33.992C222.061 34.468 222.019 34.818 221.991 35.042C221.963 35.098 221.851 35.126 221.655 35.126C221.487 35.154 221.291 35.168 221.067 35.168C220.871 35.196 220.675 35.21 220.479 35.21C220.311 35.21 220.227 35.21 220.227 35.21C219.975 35.21 219.751 35.14 219.555 35C219.387 34.86 219.247 34.692 219.135 34.496C219.051 34.272 218.981 34.048 218.925 33.824C218.897 33.572 218.883 33.348 218.883 33.152C218.883 32.676 218.953 32.298 219.093 32.018C219.261 31.71 219.345 31.29 219.345 30.758C219.289 30.534 219.275 30.31 219.303 30.086C219.359 29.834 219.261 29.708 219.009 29.708C218.953 29.764 218.883 29.834 218.799 29.918C218.743 29.974 218.687 30.016 218.631 30.044C218.603 30.016 218.533 30.002 218.421 30.002C218.365 30.002 218.239 30.044 218.043 30.128C217.847 30.212 217.637 30.31 217.413 30.422C217.189 30.534 216.979 30.646 216.783 30.758C216.615 30.87 216.517 30.954 216.489 31.01C216.181 31.206 215.873 31.374 215.565 31.514C215.285 31.654 215.047 31.822 214.851 32.018L214.767 32.648C214.767 32.676 214.753 32.746 214.725 32.858C214.697 32.942 214.683 33.026 214.683 33.11L214.725 33.152L214.893 33.026L215.019 33.236C215.215 33.264 215.411 33.278 215.607 33.278C215.803 33.25 215.943 33.264 216.027 33.32C216.055 33.32 216.069 33.32 216.069 33.32C216.097 33.292 216.125 33.278 216.153 33.278C216.293 33.278 216.461 33.348 216.657 33.488C216.881 33.628 217.077 33.698 217.245 33.698C217.301 33.698 217.343 33.684 217.371 33.656ZM229.358 31.934V32.27C229.358 32.466 229.386 32.62 229.442 32.732L229.526 32.69C229.526 32.802 229.512 32.942 229.484 33.11C229.484 33.25 229.428 33.348 229.316 33.404L229.106 35.252C228.994 35.28 228.868 35.294 228.728 35.294H228.518C228.462 35.294 228.392 35.322 228.308 35.378L228.266 35.042C228.182 35.098 228.14 35.182 228.14 35.294V35.546V35.714C228.084 35.658 228.014 35.63 227.93 35.63C227.874 35.63 227.846 35.63 227.846 35.63C227.874 35.658 227.86 35.672 227.804 35.672C227.72 35.672 227.552 35.616 227.3 35.504C227.048 35.392 226.768 35.336 226.46 35.336C226.292 35.336 226.166 35.35 226.082 35.378C226.082 35.322 226.096 35.252 226.124 35.168C226.152 35.084 226.166 35.014 226.166 34.958C226.026 34.818 225.928 34.622 225.872 34.37C225.844 34.118 225.718 33.992 225.494 33.992H225.41C225.494 33.852 225.536 33.698 225.536 33.53C225.564 33.334 225.578 33.166 225.578 33.026C225.578 32.97 225.55 32.802 225.494 32.522L225.452 31.976V31.64V31.472C225.48 31.416 225.536 31.36 225.62 31.304C225.732 31.248 225.816 31.192 225.872 31.136C225.872 31.08 225.844 30.996 225.788 30.884C225.732 30.772 225.704 30.66 225.704 30.548L225.914 30.296C225.886 30.296 225.872 30.226 225.872 30.086C225.872 29.918 225.872 29.722 225.872 29.498C225.9 29.274 225.914 29.092 225.914 28.952C225.914 28.784 225.9 28.7 225.872 28.7L226.25 23.912C226.278 23.716 226.334 23.604 226.418 23.576C226.53 23.52 226.656 23.492 226.796 23.492C226.936 23.492 227.118 23.534 227.342 23.618C227.566 23.674 227.776 23.744 227.972 23.828C228.196 23.912 228.392 24.01 228.56 24.122C228.728 24.206 228.84 24.29 228.896 24.374C228.924 24.402 228.966 24.5 229.022 24.668C229.106 24.836 229.19 25.018 229.274 25.214C229.358 25.382 229.442 25.55 229.526 25.718C229.638 25.858 229.736 25.928 229.82 25.928L229.946 25.844C230.31 25.62 230.576 25.424 230.744 25.256C230.912 25.06 231.206 24.92 231.626 24.836C231.626 24.724 231.808 24.57 232.172 24.374C232.564 24.15 232.97 23.94 233.39 23.744C233.838 23.52 234.23 23.338 234.566 23.198C234.902 23.03 235.014 22.946 234.902 22.946C235.042 22.946 235.252 23.002 235.532 23.114C235.812 23.226 236.064 23.394 236.288 23.618L237.086 24.416L236.498 25.214L235.868 25.424L235.952 25.592C235.812 25.76 235.574 25.858 235.238 25.886C234.93 25.914 234.692 25.984 234.524 26.096C234.524 26.124 234.538 26.138 234.566 26.138L234.608 26.18C234.188 26.292 233.782 26.418 233.39 26.558C233.054 26.698 232.704 26.852 232.34 27.02C231.976 27.16 231.682 27.328 231.458 27.524L230.828 28.196C230.828 28.168 230.744 28.21 230.576 28.322C230.436 28.406 230.268 28.532 230.072 28.7C229.904 28.84 229.736 29.008 229.568 29.204C229.4 29.372 229.316 29.526 229.316 29.666V29.708L229.652 29.834L229.4 31.934H229.358ZM233.18 24.836C232.788 24.948 232.452 25.102 232.172 25.298L231.752 25.55L231.794 25.634C232.158 25.438 232.522 25.27 232.886 25.13C233.278 24.962 233.614 24.85 233.894 24.794C233.782 24.794 233.656 24.794 233.516 24.794C233.376 24.794 233.264 24.808 233.18 24.836ZM230.996 25.76C230.94 25.816 230.814 25.914 230.618 26.054C230.422 26.166 230.296 26.25 230.24 26.306L229.988 26.516H230.03C230.086 26.432 230.184 26.362 230.324 26.306C230.464 26.222 230.604 26.152 230.744 26.096C230.912 26.012 231.052 25.956 231.164 25.928C231.276 25.872 231.332 25.816 231.332 25.76C231.332 25.704 231.248 25.648 231.08 25.592C231.052 25.592 231.038 25.62 231.038 25.676C231.038 25.704 231.024 25.732 230.996 25.76ZM239.518 26.138C239.518 25.998 239.532 25.858 239.56 25.718C239.616 25.55 239.644 25.41 239.644 25.298V24.416L239.854 24.29H241.03C241.058 24.234 241.1 24.206 241.156 24.206C241.212 24.178 241.268 24.136 241.324 24.08L241.492 23.954H241.702L242.668 24.29V25.13C242.668 25.214 242.724 25.354 242.836 25.55C242.948 25.746 243.004 25.872 243.004 25.928L242.668 26.642C242.724 26.726 242.752 26.852 242.752 27.02C242.752 27.188 242.766 27.342 242.794 27.482C242.794 27.566 242.78 27.664 242.752 27.776C242.724 27.86 242.71 27.944 242.71 28.028C242.71 28.168 242.738 28.294 242.794 28.406C242.85 28.518 242.878 28.63 242.878 28.742C242.878 29.302 242.892 29.722 242.92 30.002C242.948 30.254 242.976 30.45 243.004 30.59C243.06 30.702 243.102 30.8 243.13 30.884C243.186 30.94 243.242 31.066 243.298 31.262C243.998 31.262 244.684 31.22 245.356 31.136C246.028 31.024 246.462 30.73 246.658 30.254C246.882 29.75 246.994 29.302 246.994 28.91C247.022 28.49 247.148 28 247.372 27.44L247.414 26.768L247.708 26.012L247.666 25.592C247.694 25.396 247.736 25.158 247.792 24.878C247.876 24.598 247.974 24.318 248.086 24.038C248.198 23.758 248.324 23.52 248.464 23.324C248.632 23.1 248.828 22.96 249.052 22.904L251.236 23.156H251.278C251.558 23.156 251.74 23.268 251.824 23.492C251.936 23.688 252.02 23.786 252.076 23.786L252.034 24.878C252.062 25.018 252.104 25.074 252.16 25.046C252.216 25.018 252.244 25.074 252.244 25.214C252.244 25.382 252.188 25.564 252.076 25.76C251.992 25.956 251.894 26.166 251.782 26.39C251.698 26.614 251.6 26.852 251.488 27.104C251.404 27.328 251.362 27.538 251.362 27.734L251.53 27.986C251.53 28.098 251.502 28.224 251.446 28.364C251.39 28.476 251.362 28.602 251.362 28.742H251.488C251.404 28.798 251.362 28.868 251.362 28.952C251.362 29.036 251.404 29.12 251.488 29.204H251.614L250.816 30.926L251.194 30.968L250.438 32.48L250.522 34.118C250.522 34.314 250.536 34.51 250.564 34.706C250.592 34.902 250.606 35.098 250.606 35.294C250.606 35.518 250.578 35.742 250.522 35.966C250.466 36.19 250.438 36.372 250.438 36.512L250.228 36.428C250.2 36.4 250.172 36.372 250.144 36.344C250.144 36.344 250.074 36.316 249.934 36.26L249.808 36.512L250.06 36.47L250.354 37.436L249.892 38.36C249.836 38.276 249.808 38.234 249.808 38.234C249.724 38.234 249.668 38.276 249.64 38.36C249.612 38.36 249.57 38.332 249.514 38.276L249.43 38.15C249.43 38.262 249.43 38.388 249.43 38.528C249.458 38.668 249.472 38.794 249.472 38.906C249.472 39.046 249.458 39.13 249.43 39.158L249.178 39.368V40.586L248.926 40.67C248.842 40.81 248.8 40.922 248.8 41.006C248.8 41.202 248.856 41.3 248.968 41.3L249.136 41.174C249.024 41.398 248.968 41.552 248.968 41.636C248.996 41.748 248.982 41.804 248.926 41.804H248.254C248.282 41.944 248.31 42.056 248.338 42.14C248.394 42.252 248.422 42.35 248.422 42.434C248.422 42.462 248.408 42.49 248.38 42.518L248.506 42.644L248.842 42.224C248.898 42.336 248.926 42.42 248.926 42.476C248.926 42.784 248.814 43.05 248.59 43.274C248.394 43.498 248.212 43.638 248.044 43.694L246.994 43.736C246.938 43.736 246.882 43.75 246.826 43.778C246.798 43.834 246.756 43.862 246.7 43.862V43.988C246.392 43.988 246 44.1 245.524 44.324C245.076 44.576 244.754 44.772 244.558 44.912L244.264 45.248C244.124 45.388 243.83 45.542 243.382 45.71C242.962 45.878 242.64 45.99 242.416 46.046C242.276 46.158 242.15 46.284 242.038 46.424C241.954 46.564 241.828 46.648 241.66 46.676V46.55L241.492 46.676C241.296 46.676 241.03 46.718 240.694 46.802C240.386 46.886 240.134 46.928 239.938 46.928L239.854 46.634L239.602 46.676C239.462 46.536 239.28 46.424 239.056 46.34C238.86 46.256 238.762 46.102 238.762 45.878C238.762 45.654 238.86 45.444 239.056 45.248C239.252 45.08 239.49 44.912 239.77 44.744C240.05 44.604 240.33 44.464 240.61 44.324C240.918 44.212 241.184 44.086 241.408 43.946L241.492 43.694L242.668 42.728C243.06 42.448 243.424 42.196 243.76 41.972C244.124 41.776 244.502 41.524 244.894 41.216C245.006 41.132 245.076 40.978 245.104 40.754C245.16 40.558 245.188 40.334 245.188 40.082C245.216 39.83 245.23 39.578 245.23 39.326C245.258 39.102 245.286 38.934 245.314 38.822L245.44 38.654C245.44 38.542 245.468 38.458 245.524 38.402L245.44 38.024C245.664 37.716 245.804 37.394 245.86 37.058C245.916 36.722 245.972 36.372 246.028 36.008C246.028 35.952 246.07 35.868 246.154 35.756C246.238 35.644 246.28 35.532 246.28 35.42V35L246.616 33.236C246.252 33.236 245.832 33.32 245.356 33.488C244.88 33.656 244.418 33.74 243.97 33.74C242.542 33.74 241.464 33.25 240.736 32.27L240.568 31.892C240.456 31.724 240.372 31.514 240.316 31.262C240.26 31.01 240.204 30.758 240.148 30.506C240.12 30.226 240.078 29.974 240.022 29.75C239.966 29.498 239.882 29.302 239.77 29.162C239.714 29.05 239.672 28.826 239.644 28.49C239.616 28.126 239.574 27.902 239.518 27.818V26.138Z" fill="white"/>
</svg>
